{"glyphs":{"0":{"ha":858,"x_min":46,"x_max":813,"o":"m 308 364 q 313 314 308 340 q 331 265 318 288 q 368 226 344 242 q 429 211 392 211 q 499 231 475 211 q 535 276 524 250 q 548 327 546 301 q 550 364 550 353 l 550 664 q 548 701 550 676 q 535 752 546 726 q 499 797 524 778 q 429 817 475 817 q 367 801 390 817 q 330 761 343 785 q 313 711 317 738 q 308 664 308 685 l 308 364 m 46 657 q 85 843 46 768 q 184 963 125 918 q 310 1028 243 1008 q 433 1047 378 1047 q 508 1040 467 1047 q 590 1014 549 1032 q 672 966 632 996 q 744 893 713 936 q 794 792 775 850 q 813 657 813 733 l 813 371 q 776 190 813 264 q 683 69 739 115 q 560 1 628 22 q 433 -19 493 -19 q 309 1 376 -19 q 183 67 242 21 q 85 188 125 113 q 46 371 46 263 l 46 657 z "},"1":{"ha":858,"x_min":144,"x_max":575,"o":"m 575 0 l 313 0 l 313 807 l 144 807 l 144 1028 l 575 1028 l 575 0 z "},"2":{"ha":858,"x_min":61,"x_max":796,"o":"m 796 221 l 796 0 l 71 0 l 71 204 q 161 264 119 236 q 240 320 203 292 q 313 381 278 349 q 385 454 349 414 q 421 496 397 468 q 468 560 444 524 q 509 637 492 596 q 526 717 526 678 q 522 750 526 732 q 506 783 517 768 q 476 807 494 797 q 429 817 457 817 q 368 800 390 817 q 333 758 346 783 q 317 705 321 733 q 311 654 313 676 l 61 654 q 72 765 63 704 q 122 890 81 826 q 199 972 156 942 q 285 1019 242 1003 q 370 1042 329 1036 q 439 1047 411 1047 q 590 1021 525 1047 q 700 952 656 994 q 767 856 744 910 q 789 749 789 803 q 758 594 789 667 q 679 457 728 522 q 569 333 631 392 q 447 221 508 275 l 796 221 z "},"3":{"ha":858,"x_min":46,"x_max":804,"o":"m 311 307 q 318 283 313 299 q 337 251 324 267 q 372 223 350 235 q 429 211 393 211 q 515 244 488 211 q 542 326 542 278 q 526 383 542 363 q 488 415 510 404 q 442 428 465 425 q 404 431 418 431 l 311 431 l 311 624 l 356 624 q 385 625 364 624 q 429 636 407 626 q 468 667 451 646 q 485 726 485 688 q 468 788 485 760 q 413 817 451 817 q 367 806 383 817 q 344 781 351 796 q 334 752 336 767 q 332 728 332 738 l 74 728 q 110 881 75 819 q 198 980 146 943 q 311 1032 250 1017 q 425 1047 372 1047 q 560 1024 500 1047 q 661 961 619 1000 q 725 872 703 922 q 747 767 747 821 q 731 676 747 714 q 693 614 715 639 q 648 574 671 589 q 611 551 625 560 q 723 490 683 526 q 781 415 763 453 q 801 347 799 378 q 804 303 804 315 q 774 177 804 236 q 691 74 743 118 q 570 6 639 31 q 424 -19 501 -19 q 333 -10 379 -19 q 243 16 286 -1 q 164 60 200 33 q 103 125 128 88 q 76 176 86 150 q 59 227 65 203 q 50 272 53 251 q 46 307 47 293 l 311 307 z "},"4":{"ha":858,"x_min":21,"x_max":839,"o":"m 490 386 l 490 708 l 488 708 l 285 386 l 490 386 m 21 181 l 21 372 l 481 1028 l 725 1028 l 725 386 l 839 386 l 839 181 l 725 181 l 725 0 l 474 0 l 474 181 l 21 181 z "},"5":{"ha":858,"x_min":36,"x_max":822,"o":"m 161 1028 l 729 1028 l 729 807 l 363 807 l 340 667 q 362 678 350 672 q 390 688 374 683 q 427 694 406 692 q 479 697 449 697 q 635 663 571 697 q 742 578 700 629 q 803 466 783 526 q 822 353 822 406 q 799 228 822 294 q 728 107 776 163 q 606 15 681 51 q 428 -21 532 -21 q 278 3 344 -21 q 161 67 211 26 q 79 160 111 107 q 36 275 47 214 l 300 275 q 337 238 318 251 q 372 219 356 225 q 401 212 389 213 q 421 211 414 211 q 474 222 449 211 q 519 251 500 232 q 549 294 538 269 q 560 347 560 319 q 551 397 560 372 q 524 440 542 421 q 480 470 506 458 q 419 482 454 482 q 344 464 381 482 q 285 393 308 446 l 72 446 l 161 1028 z "},"6":{"ha":858,"x_min":29,"x_max":833,"o":"m 288 354 q 300 291 288 318 q 333 247 313 264 q 378 220 353 229 q 426 211 403 211 q 482 222 456 211 q 528 250 508 232 q 559 294 547 268 q 571 350 571 319 q 562 400 571 375 q 534 445 553 425 q 488 478 515 465 q 426 490 461 490 q 326 449 364 490 q 288 354 288 408 m 457 718 l 460 715 q 482 720 469 719 q 510 721 494 721 q 623 699 565 721 q 728 634 681 678 q 804 525 775 590 q 833 372 833 460 q 801 213 833 285 q 715 89 769 140 q 588 9 661 38 q 435 -19 515 -19 q 253 15 338 -19 q 117 119 169 50 q 49 247 68 175 q 29 378 29 318 q 57 525 29 457 q 124 653 85 593 l 379 1028 l 683 1028 l 457 718 z "},"7":{"ha":858,"x_min":90,"x_max":760,"o":"m 760 1028 l 760 826 l 399 0 l 110 0 l 489 807 l 90 807 l 90 1028 l 760 1028 z "},"8":{"ha":858,"x_min":54,"x_max":804,"o":"m 317 329 q 348 247 317 282 q 433 211 379 211 q 478 222 458 211 q 513 249 499 232 q 534 286 526 265 q 542 328 542 307 q 534 369 542 349 q 513 408 526 390 q 477 435 499 425 q 429 446 456 446 q 351 415 385 446 q 317 329 317 385 m 335 740 q 344 696 335 714 q 368 667 354 678 q 398 651 382 656 q 428 646 414 646 q 494 672 464 646 q 524 743 524 699 q 495 809 524 783 q 431 835 467 835 q 365 809 394 835 q 335 740 335 783 m 643 565 q 732 504 700 542 q 780 428 764 467 q 800 356 796 389 q 804 306 804 322 q 776 181 804 240 q 699 78 749 122 q 580 7 649 33 q 431 -19 511 -19 q 281 7 350 -19 q 162 78 213 33 q 83 181 111 122 q 54 306 54 240 q 58 353 54 319 q 77 425 61 386 q 125 502 93 464 q 215 565 157 540 q 185 591 203 575 q 153 630 168 607 q 126 685 138 653 q 115 758 115 717 q 136 866 115 814 q 197 958 157 918 q 296 1023 238 999 q 429 1047 354 1047 q 565 1022 506 1047 q 663 956 624 997 q 723 864 703 915 q 743 761 743 813 q 732 685 743 718 q 705 630 721 653 q 672 591 689 607 q 643 565 656 575 z "},"9":{"ha":858,"x_min":28,"x_max":836,"o":"m 574 675 q 561 737 574 710 q 528 781 549 764 q 482 808 507 799 q 432 817 457 817 q 378 807 404 817 q 333 779 353 797 q 302 735 314 761 q 290 679 290 710 q 299 629 290 654 q 326 584 308 604 q 371 551 344 564 q 432 539 397 539 q 490 550 464 539 q 535 580 517 561 q 564 623 554 599 q 574 675 574 647 m 404 311 l 401 314 q 351 308 389 308 q 238 331 296 308 q 134 397 181 353 q 58 506 88 442 q 28 657 28 571 q 60 817 28 744 q 146 940 92 889 q 272 1019 200 992 q 426 1047 344 1047 q 608 1013 524 1047 q 750 913 693 979 q 819 792 801 860 q 836 657 836 725 q 806 505 835 574 q 738 376 778 436 l 482 0 l 178 0 l 404 311 z "}," ":{"ha":429,"x_min":0,"x_max":0,"o":""},"$":{"ha":858,"x_min":111,"x_max":747,"o":"m 529 986 q 606 954 571 976 q 668 899 642 932 q 709 821 694 865 q 722 722 724 776 l 507 722 q 504 745 507 731 q 494 774 501 760 q 472 799 486 789 q 431 810 457 810 q 375 786 394 810 q 356 732 356 763 q 367 686 356 706 q 403 651 379 667 q 463 622 428 636 q 543 589 497 607 q 647 530 607 564 q 710 458 688 496 q 740 385 732 421 q 747 322 747 349 q 744 278 747 314 q 719 199 740 243 q 654 111 699 156 q 529 40 610 67 l 529 -106 l 342 -106 l 342 35 q 305 44 325 39 q 262 59 285 49 q 216 86 239 69 q 172 129 193 103 q 128 208 146 163 q 111 296 111 253 l 111 311 l 349 311 q 351 288 349 304 q 363 256 354 272 q 387 226 371 239 q 431 213 403 213 q 483 233 457 213 q 510 294 510 254 q 484 359 510 329 q 382 418 458 389 q 292 453 339 433 q 208 506 246 474 q 144 585 169 538 q 119 706 119 633 q 140 817 119 769 q 191 899 160 865 q 262 954 222 933 q 342 986 301 975 l 342 1126 l 529 1126 l 529 986 z "},"%":{"ha":1192,"x_min":50,"x_max":1142,"o":"m 725 1028 l 886 1028 l 460 0 l 300 0 l 725 1028 m 794 231 q 823 162 794 190 q 892 133 851 133 q 959 162 931 133 q 988 231 988 190 q 959 300 988 272 q 892 328 931 328 q 822 299 850 328 q 794 231 794 271 m 640 231 q 660 328 640 282 q 714 408 679 374 q 794 463 749 443 q 892 482 839 482 q 989 463 943 482 q 1069 408 1035 443 q 1122 328 1103 374 q 1142 231 1142 282 q 1122 132 1142 178 q 1067 52 1101 86 q 988 -1 1033 18 q 892 -21 942 -21 q 794 -1 840 -21 q 715 52 749 18 q 660 132 681 86 q 640 231 640 178 m 204 797 q 232 730 204 758 q 300 701 260 701 q 367 729 338 701 q 396 799 396 757 q 368 867 396 839 q 300 894 340 894 q 232 867 260 894 q 204 797 204 839 m 50 797 q 69 894 50 849 q 123 975 89 940 q 203 1029 157 1010 q 300 1049 249 1049 q 397 1029 351 1049 q 477 975 443 1010 q 531 894 511 940 q 550 797 550 849 q 531 699 550 744 q 477 620 511 654 q 397 567 443 586 q 300 547 351 547 q 203 567 249 547 q 124 620 158 586 q 70 699 90 654 q 50 797 50 744 z "},"&":{"ha":1053,"x_min":68,"x_max":1013,"o":"m 443 682 q 487 732 467 706 q 507 796 507 758 q 492 842 507 824 q 447 861 476 861 q 404 844 424 861 q 385 793 385 828 q 405 729 385 757 q 443 682 425 701 m 400 421 q 348 373 375 401 q 321 301 321 344 q 356 226 321 253 q 439 200 392 200 q 521 219 493 200 q 564 256 549 238 l 400 421 m 1013 604 l 933 414 q 899 344 918 378 q 856 278 881 310 l 996 133 l 839 -21 l 718 104 q 676 71 703 92 q 612 29 650 50 q 524 -6 574 8 q 411 -21 474 -21 q 276 2 339 -21 q 167 66 214 25 q 94 161 121 107 q 68 278 68 215 q 88 379 68 335 q 135 458 107 424 q 197 516 164 492 q 258 560 231 540 q 183 671 204 615 q 161 782 161 726 q 183 886 161 838 q 244 971 206 935 q 334 1027 282 1007 q 446 1047 386 1047 q 555 1027 506 1047 q 640 973 604 1007 q 695 892 675 939 q 715 794 715 846 q 699 706 715 744 q 661 638 683 667 q 615 590 639 610 q 574 558 590 571 l 694 436 l 769 604 l 1013 604 z "},"’":{"ha":436,"x_min":97,"x_max":339,"o":"m 339 736 q 324 652 339 685 q 286 601 308 619 q 240 575 264 582 q 197 568 215 568 l 97 568 l 97 692 l 147 692 q 178 698 167 692 q 197 713 190 704 q 205 730 203 721 q 207 744 207 739 l 207 792 l 97 792 l 97 1028 l 339 1028 l 339 736 z "},"(":{"ha":657,"x_min":90,"x_max":597,"o":"m 597 -367 q 362 -235 458 -315 q 205 -59 265 -154 q 117 140 144 36 q 90 340 90 243 q 117 540 90 438 q 205 738 144 643 q 362 914 265 833 q 597 1047 458 994 l 597 806 q 510 739 554 782 q 429 636 465 696 q 370 501 393 576 q 347 338 347 425 q 369 182 347 256 q 426 49 390 108 q 506 -56 461 -11 q 597 -126 550 -101 l 597 -367 z "},")":{"ha":657,"x_min":60,"x_max":567,"o":"m 60 1047 q 295 914 199 994 q 452 738 392 833 q 540 540 513 643 q 567 339 567 436 q 540 139 567 242 q 452 -59 513 36 q 295 -235 392 -154 q 60 -367 199 -315 l 60 -126 q 147 -60 103 -103 q 228 43 192 -17 q 287 178 264 103 q 310 342 310 254 q 288 497 310 424 q 231 631 267 571 q 151 735 196 690 q 60 806 107 781 l 60 1047 z "},"*":{"ha":931,"x_min":160,"x_max":771,"o":"m 589 692 l 704 539 l 575 442 l 461 601 l 351 442 l 222 539 l 342 692 l 160 749 l 210 900 l 388 833 l 383 1028 l 549 1028 l 539 833 l 718 900 l 771 749 l 589 692 z "},"+":{"ha":833,"x_min":67,"x_max":767,"o":"m 306 703 l 528 703 l 528 463 l 767 463 l 767 240 l 528 240 l 528 0 l 306 0 l 306 240 l 67 240 l 67 463 l 306 463 l 306 703 z "},",":{"ha":436,"x_min":99,"x_max":339,"o":"m 339 -56 q 324 -140 339 -107 q 286 -191 308 -172 q 240 -217 264 -210 q 197 -224 215 -224 l 99 -224 l 99 -100 l 147 -100 q 178 -94 167 -100 q 197 -79 190 -87 q 205 -62 203 -71 q 207 -47 207 -53 l 207 0 l 99 0 l 99 236 l 339 236 l 339 -56 z "},"-":{"ha":390,"x_min":0,"x_max":390,"o":"m 390 288 l 0 288 l 0 514 l 390 514 l 390 288 z "},"­":{"ha":390,"x_min":0,"x_max":390,"o":"m 390 288 l 0 288 l 0 514 l 390 514 l 390 288 z "},".":{"ha":436,"x_min":99,"x_max":339,"o":"m 339 0 l 99 0 l 99 236 l 339 236 l 339 0 z "},"/":{"ha":824,"x_min":100,"x_max":724,"o":"m 468 1028 l 724 1028 l 357 -139 l 100 -139 l 468 1028 z "},":":{"ha":436,"x_min":99,"x_max":339,"o":"m 339 535 l 99 535 l 99 771 l 339 771 l 339 535 m 339 0 l 99 0 l 99 236 l 339 236 l 339 0 z "},";":{"ha":436,"x_min":99,"x_max":339,"o":"m 339 535 l 99 535 l 99 771 l 339 771 l 339 535 m 339 -56 q 324 -140 339 -107 q 286 -191 308 -172 q 240 -217 264 -210 q 197 -224 215 -224 l 99 -224 l 99 -100 l 147 -100 q 178 -94 167 -100 q 197 -79 190 -87 q 205 -62 203 -71 q 207 -47 207 -53 l 207 0 l 99 0 l 99 236 l 339 236 l 339 -56 z "},";":{"ha":436,"x_min":99,"x_max":339,"o":"m 339 535 l 99 535 l 99 771 l 339 771 l 339 535 m 339 -56 q 324 -140 339 -107 q 286 -191 308 -172 q 240 -217 264 -210 q 197 -224 215 -224 l 99 -224 l 99 -100 l 147 -100 q 178 -94 167 -100 q 197 -79 190 -87 q 205 -62 203 -71 q 207 -47 207 -53 l 207 0 l 99 0 l 99 236 l 339 236 l 339 -56 z "},"<":{"ha":833,"x_min":64,"x_max":769,"o":"m 769 190 l 769 -53 l 64 244 l 64 458 l 769 756 l 769 513 l 297 353 l 297 350 l 769 190 z "},"=":{"ha":833,"x_min":67,"x_max":767,"o":"m 767 57 l 67 57 l 67 279 l 767 279 l 767 57 m 767 424 l 67 424 l 67 646 l 767 646 l 767 424 z "},">":{"ha":833,"x_min":64,"x_max":769,"o":"m 536 350 l 536 353 l 64 513 l 64 756 l 769 458 l 769 244 l 64 -53 l 64 190 l 536 350 z "},"?":{"ha":822,"x_min":67,"x_max":765,"o":"m 501 0 l 260 0 l 260 236 l 501 236 l 501 0 m 68 676 q 67 690 67 686 q 67 701 67 696 q 94 840 67 776 q 169 949 121 903 q 285 1022 218 996 q 432 1047 353 1047 q 575 1021 513 1047 q 680 952 638 994 q 744 857 722 910 q 765 753 765 804 q 751 666 765 704 q 715 595 738 628 q 665 535 693 563 q 608 481 636 507 q 554 427 575 449 q 522 388 533 406 q 507 357 511 371 q 501 326 503 343 l 260 326 q 298 452 261 399 q 404 571 335 506 q 478 657 457 622 q 499 724 499 692 q 480 785 499 761 q 418 810 461 810 q 364 797 383 810 q 335 763 344 783 q 324 719 326 743 q 322 676 322 696 l 68 676 z "},"@":{"ha":1039,"x_min":-4,"x_max":1032,"o":"m 625 535 q 620 573 625 553 q 605 610 615 593 q 577 637 594 626 q 533 647 560 647 q 477 632 503 647 q 433 592 451 617 q 403 537 414 568 q 393 472 393 506 q 403 416 393 439 q 428 378 413 393 q 461 358 443 364 q 497 351 479 351 q 590 403 556 351 q 625 535 625 456 m 811 761 l 760 458 q 754 424 757 446 q 750 392 751 403 q 788 351 749 351 q 827 370 807 351 q 864 422 847 389 q 891 499 881 454 q 901 593 901 543 q 874 726 901 665 q 800 831 847 788 q 688 899 753 875 q 546 924 622 924 q 378 888 454 924 q 249 794 303 853 q 167 660 196 736 q 138 504 138 585 q 143 436 138 476 q 165 351 149 396 q 209 263 181 307 q 283 184 238 219 q 392 126 328 149 q 544 104 457 104 q 838 156 697 104 l 867 28 q 762 -1 814 8 q 666 -16 710 -11 q 590 -22 622 -21 q 544 -22 557 -22 q 363 2 443 -22 q 222 67 283 26 q 118 162 161 108 q 48 274 75 215 q 8 393 21 333 q -4 507 -4 453 q 34 708 -4 611 q 143 882 72 806 q 315 1004 214 958 q 540 1050 415 1050 q 740 1015 650 1050 q 895 917 831 979 q 996 772 960 856 q 1032 594 1032 689 q 1010 451 1032 519 q 950 332 988 383 q 863 251 913 281 q 760 221 814 221 q 672 249 704 221 q 624 321 639 276 q 548 241 588 261 q 458 221 508 221 q 375 240 414 221 q 307 291 336 258 q 261 369 278 324 q 244 467 244 414 q 264 576 244 521 q 319 676 283 632 q 404 749 354 721 q 515 778 454 778 q 607 753 572 778 q 653 696 642 728 l 656 696 l 667 761 l 811 761 z "},"A":{"ha":1053,"x_min":13,"x_max":1040,"o":"m 421 357 l 636 357 l 531 708 l 529 708 l 526 708 l 421 357 m 349 149 l 294 0 l 13 0 l 425 1028 l 632 1028 l 1040 0 l 756 0 l 706 149 l 349 149 z "},"B":{"ha":899,"x_min":93,"x_max":850,"o":"m 344 231 l 468 231 q 503 232 481 231 q 546 243 525 233 q 583 272 567 253 q 599 329 599 292 q 584 381 599 363 q 549 407 569 399 q 506 417 528 415 q 468 418 483 418 l 344 418 l 344 231 m 344 638 l 438 638 q 470 639 451 638 q 506 648 489 640 q 536 672 524 656 q 549 719 549 689 q 537 765 549 749 q 508 788 525 781 q 472 796 492 794 q 438 797 453 797 l 344 797 l 344 638 m 93 1028 l 410 1028 q 524 1024 475 1028 q 611 1009 572 1019 q 681 978 650 999 q 739 928 711 958 q 787 847 774 892 q 800 758 800 803 q 772 643 800 699 q 681 551 743 588 q 777 495 743 529 q 827 426 811 461 q 847 360 843 390 q 850 313 850 329 q 826 189 850 250 q 756 89 803 128 q 688 42 719 60 q 617 15 656 24 q 532 3 579 6 q 419 0 485 0 l 93 0 l 93 1028 z "},"C":{"ha":1156,"x_min":51,"x_max":1113,"o":"m 1113 385 q 1041 219 1090 293 q 924 92 992 144 q 771 10 856 39 q 593 -19 686 -19 q 372 25 472 -19 q 201 144 272 69 q 91 315 131 218 q 51 515 51 411 q 88 709 51 614 q 194 879 125 804 q 364 1001 264 954 q 590 1047 464 1047 q 804 1006 711 1047 q 962 903 897 964 q 1064 769 1026 842 q 1113 638 1101 697 l 838 638 q 806 698 826 667 q 756 756 786 729 q 683 799 725 782 q 589 817 642 817 q 472 790 522 817 q 385 722 421 764 q 332 625 350 679 q 314 517 314 571 q 333 403 314 458 q 388 306 353 349 q 475 237 424 263 q 590 211 526 211 q 696 233 651 211 q 769 285 740 256 q 815 342 799 314 q 838 385 831 371 l 1113 385 z "},"D":{"ha":1031,"x_min":79,"x_max":968,"o":"m 342 231 l 454 231 q 576 254 528 231 q 653 317 625 278 q 694 407 682 356 q 706 513 706 458 q 694 608 706 557 q 656 703 683 658 q 628 737 644 719 q 588 767 611 754 q 531 789 564 781 q 456 797 499 797 l 342 797 l 342 231 m 79 1028 l 419 1028 q 520 1025 463 1028 q 640 1004 578 1022 q 763 947 701 986 q 874 836 824 908 q 947 682 926 763 q 968 517 968 601 q 940 317 968 411 q 850 153 913 224 q 686 41 788 82 q 439 0 585 0 l 79 0 l 79 1028 z "},"E":{"ha":733,"x_min":93,"x_max":664,"o":"m 93 1028 l 664 1028 l 664 797 l 344 797 l 344 638 l 654 638 l 654 407 l 344 407 l 344 231 l 664 231 l 664 0 l 93 0 l 93 1028 z "},"F":{"ha":703,"x_min":93,"x_max":654,"o":"m 93 1028 l 654 1028 l 654 797 l 344 797 l 344 622 l 643 622 l 643 392 l 344 392 l 344 0 l 93 0 l 93 1028 z "},"G":{"ha":1186,"x_min":49,"x_max":1143,"o":"m 1142 585 q 1143 558 1143 571 q 1143 531 1143 546 q 1097 299 1143 401 q 976 126 1051 197 q 801 17 900 54 q 594 -21 701 -21 q 378 22 478 -21 q 205 138 278 64 q 90 309 132 211 q 49 518 49 407 q 92 731 49 633 q 210 898 135 828 q 385 1008 285 968 q 599 1047 485 1047 q 774 1018 690 1047 q 926 940 858 989 q 1043 824 994 890 q 1113 683 1092 758 l 818 683 q 731 777 788 738 q 592 817 675 817 q 493 799 543 817 q 403 744 443 781 q 337 651 363 707 q 311 518 311 594 q 337 379 311 438 q 403 283 363 321 q 494 228 444 246 q 593 210 544 210 q 755 255 692 210 q 839 375 818 300 l 532 375 l 532 585 l 1142 585 z "},"H":{"ha":1047,"x_min":93,"x_max":954,"o":"m 93 1028 l 356 1028 l 356 642 l 692 642 l 692 1028 l 954 1028 l 954 0 l 692 0 l 692 411 l 356 411 l 356 0 l 93 0 l 93 1028 z "},"I":{"ha":449,"x_min":93,"x_max":356,"o":"m 93 1028 l 356 1028 l 356 0 l 93 0 l 93 1028 z "},"J":{"ha":803,"x_min":8,"x_max":708,"o":"m 708 1028 l 708 407 q 705 296 708 342 q 693 217 701 250 q 673 160 685 183 q 644 115 661 136 q 513 14 592 47 q 354 -19 433 -19 q 319 -18 347 -19 q 253 -7 292 -17 q 172 24 215 3 q 93 85 129 46 q 33 183 57 124 q 8 331 8 243 l 288 331 q 292 292 289 313 q 302 253 294 271 q 325 223 310 235 q 367 211 340 211 q 413 225 396 211 q 436 259 429 239 q 444 301 443 279 q 446 342 446 324 l 446 1028 l 708 1028 z "},"K":{"ha":982,"x_min":121,"x_max":974,"o":"m 121 1028 l 383 1028 l 383 565 l 386 565 l 676 1028 l 951 1028 l 611 515 l 974 0 l 667 0 l 386 444 l 383 444 l 383 0 l 121 0 l 121 1028 z "},"L":{"ha":676,"x_min":100,"x_max":667,"o":"m 100 1028 l 363 1028 l 363 231 l 667 231 l 667 0 l 100 0 l 100 1028 z "},"M":{"ha":1271,"x_min":93,"x_max":1178,"o":"m 93 1028 l 431 1028 l 635 351 l 638 351 l 839 1028 l 1178 1028 l 1178 0 l 936 0 l 944 769 l 942 772 l 722 0 l 549 0 l 329 772 l 326 769 l 335 0 l 93 0 l 93 1028 z "},"N":{"ha":1054,"x_min":93,"x_max":960,"o":"m 93 1028 l 319 1028 l 717 382 l 719 385 l 708 1028 l 960 1028 l 960 0 l 732 0 l 340 625 l 338 624 l 344 0 l 93 0 l 93 1028 z "},"O":{"ha":1182,"x_min":49,"x_max":1133,"o":"m 311 517 q 331 402 311 457 q 387 305 350 347 q 476 237 424 263 q 594 211 528 211 q 716 240 664 211 q 802 313 768 268 q 853 410 836 357 q 871 513 871 463 q 853 616 871 563 q 802 715 836 669 q 715 788 768 760 q 592 817 663 817 q 471 790 524 817 q 383 721 418 764 q 329 624 347 678 q 311 517 311 571 m 89 721 q 150 828 110 771 q 252 934 190 885 q 398 1015 314 983 q 590 1047 482 1047 q 808 1004 708 1047 q 981 888 908 961 q 1093 718 1053 815 q 1133 514 1133 621 q 1093 310 1133 407 q 981 140 1053 213 q 808 24 908 67 q 589 -19 708 -19 q 368 25 468 -19 q 197 142 268 69 q 88 309 126 215 q 49 501 49 403 q 57 608 49 553 q 89 721 65 664 z "},"P":{"ha":883,"x_min":93,"x_max":867,"o":"m 344 553 l 451 553 q 498 555 469 553 q 552 568 526 557 q 597 605 578 579 q 615 676 615 631 q 596 747 615 722 q 549 782 576 771 q 492 795 522 793 q 442 797 463 797 l 344 797 l 344 553 m 93 1028 l 429 1028 q 551 1022 500 1028 q 638 1007 601 1017 q 700 983 675 997 q 746 953 725 969 q 837 831 807 903 q 867 681 867 760 q 859 602 867 642 q 837 527 851 563 q 803 462 822 492 q 758 411 783 432 q 704 372 732 389 q 642 344 676 356 q 563 328 607 333 q 458 322 518 322 l 344 322 l 344 0 l 93 0 l 93 1028 z "},"Q":{"ha":1203,"x_min":49,"x_max":1188,"o":"m 708 236 q 667 283 692 256 q 609 338 643 311 q 531 382 575 364 q 431 400 486 400 q 380 395 400 400 q 339 383 360 390 q 388 304 358 338 q 451 250 417 271 q 522 219 486 229 q 589 210 557 210 q 708 236 654 207 m 840 375 q 864 437 856 401 q 875 522 872 472 q 852 645 875 590 q 790 738 829 700 q 699 797 751 776 q 590 817 647 817 q 409 749 485 817 q 313 557 333 681 q 379 581 346 571 q 458 592 413 592 q 547 581 500 592 q 642 544 593 569 q 741 476 690 518 q 840 375 792 435 m 1188 -18 q 1157 -20 1172 -19 q 1122 -21 1142 -21 q 1028 -12 1069 -21 q 958 8 988 -4 q 910 35 929 21 q 881 60 890 49 q 794 16 836 32 q 717 -8 753 0 q 649 -19 681 -17 q 592 -21 617 -21 q 367 25 467 -21 q 196 146 267 71 q 87 315 125 221 q 49 508 49 410 q 86 706 49 610 q 194 878 124 803 q 364 1001 264 954 q 589 1047 464 1047 q 815 1002 714 1047 q 988 883 915 957 q 1099 715 1060 810 q 1138 522 1138 621 q 1128 410 1138 458 q 1105 325 1118 361 q 1077 265 1092 289 q 1053 225 1063 240 q 1105 197 1074 206 q 1165 189 1136 189 q 1175 189 1171 189 q 1188 190 1181 189 l 1188 -18 z "},"R":{"ha":907,"x_min":93,"x_max":885,"o":"m 344 511 l 438 511 q 530 527 496 511 q 581 566 564 543 q 604 614 599 589 q 610 658 610 639 q 563 763 610 729 q 440 797 517 797 l 344 797 l 344 511 m 93 1028 l 418 1028 q 535 1024 486 1028 q 619 1010 583 1019 q 683 988 656 1001 q 735 954 710 974 q 830 828 799 904 q 861 674 861 753 q 849 578 861 629 q 806 480 836 526 q 727 398 776 433 q 606 350 678 363 l 885 0 l 585 0 l 347 332 l 344 332 l 344 0 l 93 0 l 93 1028 z "},"S":{"ha":796,"x_min":35,"x_max":764,"o":"m 496 728 q 490 758 493 740 q 476 791 486 775 q 449 817 467 807 q 401 828 432 828 q 339 806 367 828 q 311 747 311 783 q 318 708 311 724 q 348 677 325 693 q 413 641 371 661 q 524 590 454 621 q 642 525 596 558 q 716 456 689 492 q 753 380 743 419 q 764 296 764 340 q 746 183 764 239 q 686 82 728 126 q 576 9 644 38 q 406 -19 507 -19 q 222 13 294 -19 q 108 94 150 46 q 51 200 67 143 q 35 307 35 257 l 35 340 l 296 340 q 308 268 296 296 q 337 225 319 240 q 372 205 354 210 q 403 200 390 200 q 476 231 450 200 q 503 299 503 263 q 494 342 503 324 q 462 375 485 360 q 400 408 439 390 q 301 450 361 425 q 231 481 274 461 q 149 535 189 501 q 79 621 108 569 q 50 744 50 672 q 82 873 50 817 q 165 968 114 929 q 281 1027 217 1007 q 410 1047 344 1047 q 562 1019 486 1047 q 688 931 638 990 q 723 876 710 903 q 743 823 736 849 q 752 774 750 797 q 756 728 754 750 l 496 728 z "},"T":{"ha":693,"x_min":14,"x_max":681,"o":"m 217 797 l 14 797 l 14 1028 l 681 1028 l 681 797 l 479 797 l 479 0 l 217 0 l 217 797 z "},"U":{"ha":969,"x_min":90,"x_max":879,"o":"m 353 1028 l 353 407 q 356 347 353 381 q 371 283 358 313 q 410 232 383 253 q 486 211 438 211 q 561 230 535 211 q 600 278 588 249 q 615 342 613 307 q 617 407 617 376 l 617 1028 l 879 1028 l 879 407 q 872 294 879 342 q 852 210 865 246 q 820 145 839 174 q 776 92 801 117 q 656 10 726 40 q 489 -19 585 -19 q 423 -15 461 -19 q 344 1 385 -11 q 265 34 304 13 q 193 90 225 56 q 141 158 161 125 q 110 226 121 190 q 94 306 99 263 q 90 407 90 350 l 90 1028 l 353 1028 z "},"V":{"ha":1003,"x_min":22,"x_max":981,"o":"m 292 1028 l 499 307 l 501 307 l 710 1028 l 981 1028 l 636 0 l 365 0 l 22 1028 l 292 1028 z "},"W":{"ha":1363,"x_min":22,"x_max":1339,"o":"m 289 1028 l 426 360 l 429 360 l 581 1028 l 782 1028 l 931 357 l 933 357 l 1074 1028 l 1339 1028 l 1067 0 l 836 0 l 682 665 l 679 665 l 525 0 l 288 0 l 22 1028 l 289 1028 z "},"X":{"ha":1054,"x_min":15,"x_max":1039,"o":"m 997 1028 l 683 542 l 1039 0 l 742 0 l 519 364 l 308 0 l 15 0 l 375 547 l 57 1028 l 354 1028 l 531 735 l 701 1028 l 997 1028 z "},"Y":{"ha":899,"x_min":13,"x_max":886,"o":"m 319 374 l 13 1028 l 297 1028 l 450 615 l 604 1028 l 886 1028 l 582 374 l 582 0 l 319 0 l 319 374 z "},"Z":{"ha":693,"x_min":22,"x_max":671,"o":"m 22 172 l 376 797 l 22 797 l 22 1028 l 671 1028 l 671 815 l 343 231 l 671 231 l 671 0 l 22 0 l 22 172 z "},"[":{"ha":657,"x_min":144,"x_max":557,"o":"m 557 806 q 474 785 504 803 q 429 740 444 767 q 410 682 414 714 q 406 619 406 650 l 406 61 q 410 -3 406 29 q 429 -61 414 -35 q 474 -105 444 -87 q 557 -125 504 -122 l 557 -367 q 510 -363 538 -365 q 449 -353 482 -361 q 376 -328 415 -344 q 299 -283 338 -311 q 210 -196 242 -244 q 165 -98 179 -147 q 147 -5 150 -49 q 144 71 144 39 l 144 610 q 148 692 144 647 q 167 785 151 738 q 213 878 182 832 q 299 964 244 924 q 376 1009 338 993 q 450 1033 415 1025 q 513 1044 485 1042 q 557 1047 540 1046 l 557 806 z "},"\\":{"ha":824,"x_min":100,"x_max":724,"o":"m 467 -139 l 100 1028 l 356 1028 l 724 -139 l 467 -139 z "},"]":{"ha":657,"x_min":100,"x_max":513,"o":"m 100 -125 q 183 -104 153 -122 q 228 -60 213 -86 q 247 -1 243 -33 q 251 61 251 31 l 251 619 q 247 683 251 650 q 228 742 243 715 q 182 785 213 768 q 100 806 151 803 l 100 1047 q 147 1043 118 1046 q 208 1032 175 1040 q 280 1008 242 1024 q 358 964 318 992 q 447 876 415 924 q 492 778 478 828 q 510 685 507 729 q 513 610 513 640 l 513 71 q 509 -12 513 33 q 490 -104 506 -57 q 444 -197 475 -151 q 358 -283 413 -243 q 281 -328 319 -312 q 207 -353 242 -344 q 144 -363 172 -361 q 100 -367 117 -365 l 100 -125 z "},"^":{"ha":833,"x_min":60,"x_max":774,"o":"m 60 521 l 301 1028 l 532 1028 l 774 521 l 524 521 l 418 831 l 415 831 l 308 521 l 60 521 z "},"_":{"ha":694,"x_min":0,"x_max":694,"o":"m 0 -174 l 0 -104 l 694 -104 l 694 -174 l 0 -174 z "},"‘":{"ha":436,"x_min":97,"x_max":339,"o":"m 97 860 q 113 944 97 911 q 150 995 128 976 q 197 1021 172 1014 q 239 1028 221 1028 l 339 1028 l 339 904 l 289 904 q 258 898 269 904 q 241 883 247 892 q 233 866 235 875 q 231 851 231 857 l 231 804 l 339 804 l 339 568 l 97 568 l 97 860 z "},"a":{"ha":978,"x_min":47,"x_max":893,"o":"m 278 383 q 288 322 278 356 q 322 259 299 289 q 381 209 344 229 q 469 189 417 189 q 560 209 524 189 q 620 259 597 229 q 653 324 643 289 q 663 386 663 358 q 651 456 663 421 q 615 519 639 490 q 553 565 590 547 q 468 582 517 582 q 383 563 418 582 q 324 515 347 544 q 289 451 300 486 q 278 383 278 417 m 893 0 l 663 0 l 663 83 l 660 83 q 621 35 644 56 q 567 0 597 14 q 502 -20 536 -14 q 435 -26 468 -26 q 271 7 343 -26 q 149 97 199 40 q 74 228 100 154 q 47 386 47 303 q 79 557 47 481 q 164 687 111 633 q 287 769 217 740 q 435 797 357 797 q 519 787 482 797 q 585 760 557 776 q 631 726 613 744 q 660 689 649 707 l 663 689 l 663 771 l 893 771 l 893 0 z "},"b":{"ha":963,"x_min":83,"x_max":917,"o":"m 306 388 q 319 311 306 347 q 356 248 332 275 q 415 205 381 221 q 493 189 450 189 q 573 206 538 189 q 633 249 608 222 q 672 313 658 276 q 686 386 686 349 q 673 459 686 424 q 635 522 660 494 q 575 565 610 549 q 497 582 540 582 q 416 565 451 582 q 356 521 381 549 q 318 458 331 493 q 306 388 306 424 m 83 1028 l 314 1028 l 314 710 q 378 760 344 743 q 444 786 413 778 q 500 796 475 794 q 538 797 525 797 q 665 774 597 797 q 788 703 732 751 q 880 577 843 654 q 917 390 917 500 q 883 208 917 286 q 796 77 850 129 q 672 -1 742 25 q 528 -26 601 -26 q 388 7 446 -26 q 307 82 329 40 l 304 82 l 304 0 l 83 0 l 83 1028 z "},"c":{"ha":906,"x_min":46,"x_max":863,"o":"m 863 293 q 811 169 847 228 q 723 68 775 111 q 603 0 671 25 q 458 -25 536 -25 q 295 7 371 -25 q 165 95 219 39 q 78 226 110 151 q 46 388 46 301 q 77 547 46 472 q 163 678 108 622 q 292 765 218 733 q 453 797 367 797 q 597 773 529 797 q 719 706 665 749 q 809 604 772 664 q 861 474 846 544 l 628 474 q 604 513 618 493 q 571 547 590 532 q 524 572 551 563 q 461 582 497 582 q 386 569 419 583 q 328 528 353 554 q 291 465 304 501 q 278 386 278 428 q 291 308 278 344 q 328 246 304 272 q 386 205 353 219 q 461 190 419 190 q 524 200 497 190 q 571 224 551 210 q 604 257 590 239 q 628 293 618 275 l 863 293 z "},"d":{"ha":969,"x_min":47,"x_max":886,"o":"m 278 389 q 292 308 278 344 q 333 244 307 271 q 395 204 360 218 q 471 190 431 190 q 563 210 525 190 q 624 259 600 229 q 658 324 647 289 q 668 389 668 358 q 656 458 668 424 q 619 520 643 493 q 558 565 594 547 q 474 582 521 582 q 387 565 424 582 q 326 519 350 547 q 290 456 301 490 q 278 389 278 422 m 886 0 l 667 0 l 667 83 l 664 83 q 642 53 657 71 q 599 17 626 35 q 532 -12 572 0 q 433 -25 492 -25 q 274 7 346 -25 q 153 94 203 39 q 75 225 103 150 q 47 388 47 300 q 79 561 47 485 q 165 690 111 638 q 287 770 218 743 q 429 797 356 797 q 519 786 481 797 q 584 760 557 775 q 628 731 611 746 q 656 706 646 715 l 656 1028 l 886 1028 l 886 0 z "},"e":{"ha":897,"x_min":42,"x_max":853,"o":"m 622 471 q 608 510 618 488 q 576 554 597 533 q 524 589 556 575 q 447 603 492 603 q 371 589 403 603 q 318 554 339 575 q 287 510 297 533 q 272 471 276 488 l 622 471 m 826 242 q 758 127 799 176 q 669 44 718 78 q 450 -25 572 -25 q 293 6 367 -25 q 163 93 219 38 q 74 223 107 149 q 42 383 42 297 q 72 539 42 464 q 156 671 101 614 q 284 763 210 728 q 446 797 358 797 q 608 765 533 797 q 738 675 683 732 q 822 541 792 618 q 853 376 853 464 q 851 341 853 353 q 847 315 850 329 l 269 315 q 331 208 281 246 q 450 169 382 169 q 535 190 503 169 q 590 242 567 211 l 826 242 z "},"f":{"ha":436,"x_min":6,"x_max":419,"o":"m 92 596 l 6 596 l 6 771 l 92 771 l 92 811 q 122 939 92 892 q 197 1010 151 986 q 293 1041 242 1035 q 386 1047 344 1047 l 419 1047 l 419 874 l 393 874 q 374 872 386 874 q 350 862 361 869 q 331 840 339 854 q 322 801 322 826 l 322 771 l 419 771 l 419 596 l 322 596 l 322 0 l 92 0 l 92 596 z "},"g":{"ha":963,"x_min":47,"x_max":882,"o":"m 278 389 q 293 306 278 343 q 334 244 308 269 q 393 204 360 218 q 463 190 426 190 q 539 205 504 190 q 599 244 574 219 q 638 305 624 269 q 651 382 651 340 q 637 465 651 428 q 597 527 622 501 q 537 567 571 553 q 464 581 503 581 q 393 567 426 581 q 334 527 360 553 q 293 466 308 501 q 278 389 278 431 m 882 93 q 873 -53 882 7 q 836 -161 864 -112 q 777 -231 814 -197 q 690 -289 740 -264 q 578 -328 640 -314 q 446 -343 517 -343 q 275 -316 346 -343 q 158 -249 204 -289 q 90 -161 113 -208 q 61 -72 67 -114 l 328 -72 q 360 -117 340 -101 q 401 -139 381 -132 q 440 -147 422 -146 q 463 -149 457 -149 q 504 -145 474 -149 q 567 -122 535 -142 q 625 -59 600 -101 q 650 61 650 -17 l 650 85 l 647 85 q 622 49 639 68 q 578 13 604 29 q 517 -14 551 -3 q 436 -25 482 -25 q 287 3 357 -25 q 163 85 217 32 q 78 213 110 138 q 47 381 47 288 q 80 556 47 479 q 167 687 113 633 q 291 768 221 740 q 436 796 361 796 q 559 772 501 796 q 649 699 617 749 l 651 699 l 651 771 l 882 771 l 882 93 z "},"h":{"ha":878,"x_min":83,"x_max":797,"o":"m 83 1028 l 314 1028 l 314 700 l 317 700 q 399 775 346 753 q 515 797 453 797 q 572 792 543 797 q 629 777 601 788 q 682 751 657 767 q 725 713 707 735 q 764 656 750 683 q 785 594 778 628 q 795 522 793 561 q 797 431 797 482 l 797 0 l 567 0 l 567 419 q 565 460 567 433 q 551 514 563 488 q 515 560 540 540 q 443 581 489 581 q 368 562 394 581 q 330 518 342 543 q 316 467 318 493 q 314 428 314 442 l 314 0 l 83 0 l 83 1028 z "},"i":{"ha":397,"x_min":83,"x_max":314,"o":"m 314 853 l 83 853 l 83 1028 l 314 1028 l 314 853 m 314 0 l 83 0 l 83 771 l 314 771 l 314 0 z "},"j":{"ha":446,"x_min":8,"x_max":351,"o":"m 351 853 l 121 853 l 121 1028 l 351 1028 l 351 853 m 351 17 q 342 -106 351 -50 q 303 -201 333 -161 q 217 -262 274 -240 q 65 -283 160 -283 l 8 -283 l 8 -108 l 39 -108 q 86 -98 69 -108 q 110 -71 103 -87 q 119 -33 118 -54 q 121 8 121 -12 l 121 771 l 351 771 l 351 17 z "},"k":{"ha":821,"x_min":92,"x_max":813,"o":"m 92 1028 l 322 1028 l 322 492 l 325 492 l 539 771 l 813 771 l 522 432 l 804 0 l 543 0 l 325 371 l 322 371 l 322 0 l 92 0 l 92 1028 z "},"l":{"ha":397,"x_min":83,"x_max":314,"o":"m 83 1028 l 314 1028 l 314 0 l 83 0 l 83 1028 z "},"m":{"ha":1346,"x_min":83,"x_max":1267,"o":"m 83 771 l 299 771 l 299 689 l 301 689 q 322 719 308 701 q 360 755 336 738 q 422 785 385 772 q 514 797 460 797 q 569 792 539 797 q 628 771 599 786 q 685 729 657 756 q 736 660 713 703 q 832 757 772 717 q 981 797 892 797 q 1026 794 1001 797 q 1078 783 1051 792 q 1133 760 1106 775 q 1183 719 1160 744 q 1226 665 1210 690 q 1252 606 1243 639 q 1264 528 1261 572 q 1267 421 1267 485 l 1267 0 l 1036 0 l 1036 410 q 1034 463 1036 433 q 1021 519 1032 493 q 986 563 1010 544 q 918 581 963 581 q 844 562 869 581 q 806 517 818 543 q 792 464 794 490 q 790 421 790 438 l 790 0 l 560 0 l 560 419 q 558 462 560 435 q 545 515 556 489 q 511 561 535 542 q 444 581 488 581 q 369 560 396 581 q 331 513 343 540 q 316 456 318 485 q 314 410 314 426 l 314 0 l 83 0 l 83 771 z "},"n":{"ha":878,"x_min":83,"x_max":797,"o":"m 83 771 l 299 771 l 299 689 l 301 689 q 324 722 310 703 q 363 757 339 740 q 424 785 388 774 q 511 797 460 797 q 622 778 567 797 q 708 731 676 758 q 740 698 724 717 q 768 650 756 679 q 789 580 781 621 q 797 482 797 539 l 797 0 l 567 0 l 567 421 q 565 469 567 442 q 551 521 563 496 q 516 563 540 546 q 446 581 492 581 q 369 562 396 581 q 331 517 343 543 q 316 465 318 492 q 314 419 314 438 l 314 0 l 83 0 l 83 771 z "},"o":{"ha":925,"x_min":47,"x_max":878,"o":"m 278 386 q 292 308 278 344 q 333 247 307 272 q 392 206 358 221 q 463 192 425 192 q 533 206 500 192 q 592 247 567 221 q 633 308 618 272 q 647 386 647 344 q 633 464 647 428 q 592 526 618 500 q 533 566 567 551 q 463 581 500 581 q 392 566 425 581 q 333 526 358 551 q 292 464 307 500 q 278 386 278 428 m 47 386 q 73 530 47 457 q 150 662 99 603 q 279 758 201 721 q 463 796 357 796 q 646 758 568 796 q 775 662 724 721 q 852 530 826 603 q 878 386 878 457 q 852 242 878 315 q 775 110 826 169 q 646 14 724 51 q 463 -24 568 -24 q 279 14 357 -24 q 150 110 201 51 q 73 242 99 169 q 47 386 47 315 z "},"p":{"ha":968,"x_min":83,"x_max":921,"o":"m 497 189 q 578 206 543 189 q 639 250 614 222 q 677 313 664 278 q 690 385 690 349 q 678 454 690 419 q 641 517 665 489 q 581 564 617 546 q 497 582 544 582 q 414 564 450 582 q 353 517 378 546 q 317 454 329 489 q 304 385 304 419 q 317 313 304 349 q 356 250 331 278 q 416 206 381 222 q 497 189 451 189 m 83 771 l 300 771 l 300 686 l 301 686 l 304 686 q 397 764 339 731 q 544 797 456 797 q 719 757 647 797 q 835 655 790 717 q 901 519 881 593 q 921 378 921 444 q 893 221 921 294 q 815 92 865 147 q 697 6 765 38 q 546 -26 628 -26 q 455 -15 493 -26 q 388 11 417 -4 q 342 42 360 26 q 314 69 324 58 l 314 -257 l 83 -257 l 83 771 z "},"q":{"ha":969,"x_min":47,"x_max":886,"o":"m 278 381 q 290 317 278 350 q 326 255 301 283 q 386 208 350 226 q 472 190 422 190 q 553 208 518 190 q 613 253 589 225 q 651 315 638 281 q 664 385 664 350 q 653 450 664 415 q 618 514 642 485 q 558 563 594 543 q 469 582 521 582 q 388 565 424 582 q 327 519 351 547 q 290 455 303 492 q 278 381 278 418 m 886 -257 l 656 -257 l 656 79 l 653 79 q 626 47 643 65 q 581 13 608 29 q 515 -14 554 -3 q 419 -25 475 -25 q 269 6 338 -25 q 152 90 201 36 q 75 215 103 143 q 47 371 47 288 q 78 550 47 471 q 162 684 108 629 q 285 768 215 739 q 435 797 356 797 q 531 784 490 797 q 598 752 571 771 q 640 715 625 733 q 663 686 656 696 l 665 686 l 665 771 l 886 771 l 886 -257 z "},"r":{"ha":504,"x_min":82,"x_max":494,"o":"m 82 771 l 299 771 l 299 689 l 301 689 q 321 722 308 703 q 355 757 333 740 q 410 785 376 774 q 494 797 444 797 l 494 565 q 421 558 454 564 q 363 538 388 553 q 326 494 339 522 q 313 424 313 467 l 313 0 l 82 0 l 82 771 z "},"s":{"ha":693,"x_min":33,"x_max":661,"o":"m 411 554 q 409 570 411 560 q 400 590 407 581 q 378 606 393 599 q 339 613 364 613 q 288 594 303 613 q 274 561 274 576 q 310 510 274 529 q 392 478 346 492 q 489 448 440 464 q 576 406 538 432 q 638 339 614 379 q 661 236 661 299 q 636 126 661 175 q 568 44 611 78 q 468 -8 525 10 q 347 -26 411 -26 q 251 -15 303 -26 q 154 25 200 -4 q 75 103 108 54 q 33 229 42 153 l 263 229 q 279 188 267 203 q 306 167 292 174 q 333 160 321 161 q 350 158 346 158 q 405 174 379 158 q 431 218 431 190 q 419 254 431 240 q 384 281 408 268 q 321 307 360 293 q 226 342 282 321 q 156 372 189 354 q 97 415 122 390 q 58 472 72 440 q 43 543 43 504 q 67 647 43 600 q 133 728 92 694 q 228 779 174 761 q 342 797 282 797 q 428 788 379 797 q 520 751 476 778 q 597 678 564 725 q 638 554 631 631 l 411 554 z "},"t":{"ha":488,"x_min":15,"x_max":471,"o":"m 360 771 l 471 771 l 471 596 l 360 596 l 360 0 l 129 0 l 129 596 l 15 596 l 15 771 l 129 771 l 129 1028 l 360 1028 l 360 771 z "},"u":{"ha":881,"x_min":81,"x_max":797,"o":"m 797 0 l 579 0 l 579 82 l 576 82 q 533 24 558 44 q 481 -8 508 3 q 426 -22 453 -19 q 376 -25 399 -25 q 331 -22 358 -25 q 271 -9 303 -19 q 207 21 239 1 q 150 72 175 40 q 113 127 126 101 q 92 180 100 153 q 83 238 85 207 q 81 310 81 269 l 81 771 l 311 771 l 311 344 q 313 298 311 325 q 326 247 315 271 q 363 207 338 224 q 435 190 389 190 q 483 198 460 190 q 526 223 507 206 q 556 271 544 240 q 567 347 567 301 l 567 771 l 797 771 l 797 0 z "},"v":{"ha":822,"x_min":24,"x_max":799,"o":"m 521 0 l 300 0 l 24 771 l 263 771 l 410 290 l 413 290 l 560 771 l 799 771 l 521 0 z "},"w":{"ha":1181,"x_min":10,"x_max":1171,"o":"m 249 771 l 364 292 l 367 292 l 493 771 l 688 771 l 815 292 l 818 292 l 933 771 l 1171 771 l 935 0 l 721 0 l 592 499 l 589 499 l 460 0 l 246 0 l 10 771 l 249 771 z "},"x":{"ha":875,"x_min":1,"x_max":872,"o":"m 833 771 l 574 413 l 872 0 l 590 0 l 436 239 l 279 0 l 1 0 l 294 413 l 35 771 l 311 771 l 436 568 l 560 771 l 833 771 z "},"y":{"ha":797,"x_min":1,"x_max":796,"o":"m 796 771 l 410 -257 l 165 -257 l 288 39 l 1 771 l 247 771 l 401 324 l 404 324 l 551 771 l 796 771 z "},"z":{"ha":617,"x_min":21,"x_max":594,"o":"m 594 175 l 594 0 l 21 0 l 21 158 l 346 596 l 21 596 l 21 771 l 594 771 l 594 596 l 293 175 l 594 175 z "},"{":{"ha":769,"x_min":146,"x_max":671,"o":"m 594 853 q 551 844 567 853 q 526 822 535 835 q 516 792 518 808 q 514 763 514 776 l 514 472 q 497 394 514 422 q 457 351 481 365 q 408 332 433 336 q 364 326 382 328 l 364 321 q 408 314 382 319 q 457 294 433 308 q 497 255 481 279 q 514 193 514 231 l 514 -101 q 516 -131 514 -115 q 526 -160 518 -147 q 551 -183 535 -174 q 594 -192 567 -192 l 671 -192 l 671 -367 l 493 -367 q 415 -356 453 -367 q 347 -321 376 -344 q 299 -261 317 -297 q 281 -175 281 -225 l 281 119 q 264 165 281 149 q 226 190 247 182 q 181 201 204 199 q 146 204 158 204 l 146 443 q 181 446 158 443 q 226 458 204 449 q 264 486 247 468 q 281 536 281 504 l 281 836 q 299 922 281 886 q 347 982 317 958 q 415 1017 376 1006 q 493 1028 453 1028 l 671 1028 l 671 853 l 594 853 z "},"|":{"ha":771,"x_min":258,"x_max":513,"o":"m 513 1028 l 513 -139 l 258 -139 l 258 1028 l 513 1028 z "},"}":{"ha":769,"x_min":99,"x_max":624,"o":"m 99 853 l 99 1028 l 276 1028 q 355 1017 317 1028 q 423 982 393 1006 q 471 922 453 958 q 489 836 489 886 l 489 536 q 506 486 489 504 q 544 458 522 468 q 588 446 565 449 q 624 443 611 443 l 624 204 q 588 201 611 204 q 544 190 565 199 q 506 165 522 182 q 489 119 489 149 l 489 -175 q 471 -261 489 -225 q 423 -321 453 -297 q 355 -356 393 -344 q 276 -367 317 -367 l 99 -367 l 99 -192 l 175 -192 q 219 -183 203 -192 q 243 -160 235 -174 q 253 -131 251 -147 q 256 -101 256 -115 l 256 193 q 272 255 256 231 q 313 294 289 279 q 362 314 336 308 q 406 321 388 319 l 406 326 q 362 332 388 328 q 313 351 336 336 q 272 394 289 365 q 256 472 256 422 l 256 763 q 253 792 256 776 q 243 822 251 808 q 219 844 235 835 q 175 853 203 853 l 99 853 z "},"~":{"ha":833,"x_min":93,"x_max":740,"o":"m 740 304 q 706 260 724 282 q 668 220 689 238 q 622 192 647 203 q 564 182 596 182 q 491 195 525 182 q 422 228 457 208 q 350 262 389 247 q 263 276 311 276 q 190 246 217 276 q 143 181 163 215 l 93 397 q 122 442 106 419 q 159 482 138 464 q 208 510 181 500 q 269 521 235 521 q 344 508 306 521 q 424 476 383 494 q 500 443 463 460 q 565 426 538 426 q 635 457 607 426 q 690 524 664 488 l 740 304 z "},"¡":{"ha":463,"x_min":113,"x_max":350,"o":"m 350 -257 l 113 -257 l 113 432 l 350 432 l 350 -257 m 350 535 l 113 535 l 113 771 l 350 771 l 350 535 z "},"¢":{"ha":858,"x_min":86,"x_max":772,"o":"m 517 860 q 626 810 579 843 q 705 738 674 778 q 753 658 736 699 q 772 583 769 617 l 533 583 q 492 624 518 610 q 435 639 465 639 q 351 606 388 639 q 315 521 315 572 q 349 438 315 472 q 435 404 383 404 q 496 420 475 404 q 528 451 517 436 l 772 451 q 747 372 765 413 q 697 294 728 331 q 624 229 667 257 q 525 189 581 201 l 525 43 l 335 43 l 335 189 q 211 255 260 214 q 135 342 163 296 q 97 435 108 389 q 86 518 86 482 q 99 614 86 564 q 142 710 113 664 q 219 795 172 757 q 335 854 267 833 l 335 1000 l 517 1000 l 517 860 z "},"£":{"ha":858,"x_min":19,"x_max":858,"o":"m 843 350 q 853 314 849 333 q 858 261 858 294 q 844 185 858 229 q 794 99 829 140 q 701 29 760 58 q 554 0 643 0 l 61 0 l 61 206 l 129 206 q 177 208 154 206 q 217 218 200 210 q 245 241 235 226 q 256 281 256 256 q 231 350 256 318 l 197 394 l 19 394 l 19 579 l 86 579 q 47 710 47 638 q 72 830 47 769 q 144 939 97 890 q 260 1018 192 988 q 417 1049 329 1049 q 601 1004 519 1049 q 728 885 682 960 q 766 796 757 838 q 781 706 775 754 l 539 706 q 532 739 538 719 q 514 776 526 758 q 479 806 501 794 q 421 818 457 818 q 374 808 394 818 q 340 781 354 797 q 317 744 325 764 q 310 703 310 724 q 326 625 310 653 q 357 579 342 597 l 574 579 l 574 394 l 467 394 q 499 351 485 374 q 513 299 513 329 q 495 244 513 265 q 458 206 478 224 l 515 206 q 549 208 529 206 q 586 220 568 211 q 617 248 604 229 q 629 300 629 267 q 628 321 629 311 q 619 350 626 331 l 843 350 z "},"¥":{"ha":858,"x_min":1,"x_max":858,"o":"m 299 232 l 26 232 l 26 425 l 299 425 l 299 463 l 263 535 l 29 535 l 29 726 l 167 726 l 1 1028 l 279 1028 l 431 699 l 585 1028 l 858 1028 l 696 726 l 831 726 l 831 535 l 594 535 l 558 467 l 558 425 l 831 425 l 831 232 l 557 232 l 557 0 l 299 0 l 299 232 z "},"ƒ":{"ha":858,"x_min":35,"x_max":760,"o":"m 704 821 l 672 647 l 572 647 l 493 194 q 477 114 485 151 q 459 42 469 76 q 433 -23 449 8 q 394 -83 418 -54 q 260 -182 338 -153 q 110 -211 182 -211 q 78 -210 103 -211 q 35 -203 54 -210 l 71 3 q 84 1 79 1 q 96 0 89 0 q 167 12 139 0 q 212 45 194 24 q 238 97 229 67 q 253 164 246 128 l 336 647 l 236 647 l 265 821 l 367 821 l 375 865 q 427 997 389 944 q 513 1080 465 1049 q 611 1124 561 1111 q 701 1136 661 1136 q 727 1135 710 1136 q 760 1132 744 1135 l 729 947 q 670 938 693 947 q 634 910 647 928 q 614 870 621 893 q 603 821 607 847 l 704 821 z "},"§":{"ha":931,"x_min":56,"x_max":875,"o":"m 319 510 q 288 488 299 500 q 272 465 278 476 q 266 446 267 454 q 265 433 265 438 q 273 399 265 413 q 292 374 281 385 q 315 357 303 364 q 339 346 328 350 l 619 217 q 657 253 643 232 q 671 303 671 275 q 646 354 671 333 q 576 394 621 375 l 319 510 m 585 761 q 563 803 578 788 q 531 828 549 819 q 496 839 514 836 q 464 842 478 842 q 434 839 451 842 q 402 828 417 836 q 377 806 388 821 q 367 768 367 792 q 374 739 367 751 q 394 717 382 726 q 422 699 407 707 q 449 686 436 692 l 701 572 q 757 544 726 561 q 814 501 788 528 q 858 435 840 474 q 875 342 875 397 q 865 269 875 301 q 837 211 854 238 q 798 163 819 185 q 756 122 776 142 q 802 47 778 92 q 826 -74 826 1 q 806 -183 826 -129 q 742 -281 785 -237 q 633 -350 699 -324 q 479 -376 568 -376 q 419 -372 456 -376 q 342 -356 383 -368 q 258 -320 300 -343 q 180 -261 215 -297 q 120 -173 144 -225 q 90 -49 96 -121 l 318 -49 q 346 -117 325 -93 q 391 -151 367 -140 q 439 -165 415 -162 q 475 -167 463 -167 q 535 -158 511 -167 q 573 -135 558 -149 q 594 -105 588 -121 q 600 -76 600 -89 q 589 -40 600 -56 q 560 -10 578 -24 q 522 14 543 3 q 478 35 500 25 l 240 144 q 182 174 214 157 q 122 219 150 192 q 74 290 93 247 q 56 394 56 332 q 58 427 56 404 q 72 480 60 450 q 111 546 85 510 q 188 618 138 582 q 156 687 168 650 q 144 772 144 724 q 174 898 144 846 q 251 983 204 950 q 358 1032 299 1017 q 476 1047 418 1047 q 617 1023 556 1047 q 722 958 679 999 q 786 867 764 918 q 811 761 808 815 l 585 761 z "},"¤":{"ha":858,"x_min":0,"x_max":858,"o":"m 0 790 l 114 904 l 236 782 q 429 838 324 838 q 531 824 482 838 q 619 783 579 810 l 742 903 l 853 790 l 735 672 q 778 578 763 628 q 794 472 794 528 q 781 372 794 419 q 742 283 767 324 l 858 167 l 746 53 l 632 168 q 537 123 588 139 q 429 107 486 107 q 323 123 374 107 q 228 168 272 139 l 113 54 l 0 165 l 118 283 q 64 472 64 369 q 79 578 64 528 q 122 671 94 629 l 0 790 m 429 626 q 370 614 397 626 q 323 581 343 601 q 291 532 303 560 q 279 474 279 504 q 291 414 279 442 q 323 365 303 386 q 370 333 343 344 q 429 321 397 321 q 487 333 460 321 q 535 365 514 344 q 567 414 556 386 q 579 474 579 442 q 567 532 579 504 q 535 581 556 560 q 488 614 515 601 q 429 626 461 626 z "},"'":{"ha":336,"x_min":47,"x_max":289,"o":"m 93 615 l 47 1028 l 289 1028 l 242 615 l 93 615 z "},"“":{"ha":771,"x_min":93,"x_max":678,"o":"m 93 860 q 108 944 93 911 q 146 995 124 976 q 192 1021 168 1014 q 235 1028 217 1028 l 335 1028 l 335 903 l 285 903 q 253 897 265 903 q 235 882 242 890 q 227 865 229 874 q 225 851 225 856 l 225 804 l 335 804 l 335 568 l 93 568 l 93 860 m 436 860 q 451 944 436 911 q 489 995 467 976 q 535 1021 511 1014 q 578 1028 560 1028 l 678 1028 l 678 903 l 628 903 q 597 897 608 903 q 578 882 585 890 q 570 865 572 874 q 568 851 568 857 l 568 804 l 678 804 l 678 568 l 436 568 l 436 860 z "},"«":{"ha":586,"x_min":65,"x_max":521,"o":"m 521 464 l 450 401 l 521 336 l 521 143 l 342 319 l 342 478 l 521 658 l 521 464 m 244 464 l 174 401 l 244 336 l 244 143 l 65 319 l 65 478 l 244 658 l 244 464 z "},"‹":{"ha":308,"x_min":65,"x_max":243,"o":"m 243 464 l 172 401 l 243 336 l 243 143 l 65 319 l 65 478 l 243 658 l 243 464 z "},"›":{"ha":308,"x_min":65,"x_max":243,"o":"m 65 338 l 136 400 l 65 465 l 65 658 l 243 476 l 243 319 l 65 143 l 65 338 z "},"ﬁ":{"ha":835,"x_min":6,"x_max":751,"o":"m 751 853 l 521 853 l 521 1028 l 751 1028 l 751 853 m 92 771 l 92 811 q 122 939 92 892 q 197 1010 151 986 q 293 1041 242 1035 q 386 1047 344 1047 l 421 1047 l 421 874 l 394 874 q 374 872 386 874 q 351 862 363 869 q 331 840 339 854 q 322 801 322 826 l 322 771 l 751 771 l 751 0 l 521 0 l 521 596 l 322 596 l 322 0 l 92 0 l 92 596 l 6 596 l 6 771 l 92 771 z "},"ﬂ":{"ha":835,"x_min":6,"x_max":751,"o":"m 92 771 l 92 811 q 122 939 92 892 q 197 1010 151 986 q 293 1041 242 1035 q 386 1047 344 1047 l 421 1047 l 421 874 l 394 874 q 374 872 386 874 q 351 862 363 869 q 331 840 339 854 q 322 801 322 826 l 322 771 l 521 771 l 521 1026 l 751 1026 l 751 0 l 521 0 l 521 596 l 322 596 l 322 0 l 92 0 l 92 596 l 6 596 l 6 771 l 92 771 z "},"–":{"ha":694,"x_min":49,"x_max":646,"o":"m 646 288 l 49 288 l 49 514 l 646 514 l 646 288 z "},"†":{"ha":931,"x_min":136,"x_max":794,"o":"m 581 782 l 794 782 l 794 588 l 581 588 l 581 -339 l 351 -339 l 351 588 l 136 588 l 136 782 l 351 782 l 351 1028 l 581 1028 l 581 782 z "},"‡":{"ha":931,"x_min":136,"x_max":794,"o":"m 581 824 l 794 824 l 794 629 l 581 629 l 581 176 l 794 176 l 794 -18 l 581 -18 l 581 -339 l 351 -339 l 351 -18 l 136 -18 l 136 176 l 351 176 l 351 629 l 136 629 l 136 824 l 351 824 l 351 1028 l 581 1028 l 581 824 z "},"·":{"ha":436,"x_min":99,"x_max":339,"o":"m 339 233 l 99 233 l 99 469 l 339 469 l 339 233 z "},"⋅":{"ha":436,"x_min":99,"x_max":339,"o":"m 339 233 l 99 233 l 99 469 l 339 469 l 339 233 z "},"¶":{"ha":974,"x_min":-10,"x_max":843,"o":"m 285 493 l 265 493 q 173 506 221 493 q 84 550 125 519 q 17 631 43 581 q -10 756 -10 682 q 9 867 -10 821 q 59 943 28 913 q 128 990 90 974 q 206 1015 167 1007 q 282 1026 246 1024 q 343 1028 318 1028 l 843 1028 l 843 864 l 775 864 l 775 -143 l 597 -143 l 597 864 l 463 864 l 463 -143 l 285 -143 l 285 493 z "},"•":{"ha":1026,"x_min":301,"x_max":725,"o":"m 515 739 q 597 722 558 739 q 663 675 635 704 q 708 607 692 646 q 725 524 725 568 q 708 440 725 479 q 663 371 692 400 q 595 325 633 342 q 514 308 557 308 q 431 326 469 308 q 363 372 392 343 q 318 440 335 401 q 301 524 301 479 q 317 606 301 567 q 362 674 333 644 q 430 722 390 704 q 515 739 469 739 z "},"‚":{"ha":436,"x_min":97,"x_max":339,"o":"m 339 -56 q 324 -140 339 -107 q 286 -191 308 -172 q 240 -217 264 -210 q 197 -224 215 -224 l 97 -224 l 97 -100 l 147 -100 q 178 -94 167 -100 q 197 -79 190 -87 q 205 -62 203 -71 q 207 -47 207 -53 l 207 0 l 97 0 l 97 236 l 339 236 l 339 -56 z "},"„":{"ha":771,"x_min":93,"x_max":678,"o":"m 678 -56 q 663 -140 678 -107 q 625 -191 647 -172 q 578 -217 603 -210 q 536 -224 554 -224 l 436 -224 l 436 -100 l 486 -100 q 516 -94 504 -100 q 534 -79 528 -87 q 542 -62 540 -71 q 544 -47 544 -53 l 544 0 l 436 0 l 436 236 l 678 236 l 678 -56 m 335 -56 q 319 -140 335 -107 q 282 -191 304 -172 q 235 -217 260 -210 q 192 -224 210 -224 l 93 -224 l 93 -100 l 142 -100 q 173 -94 161 -100 q 191 -79 185 -87 q 199 -62 197 -71 q 201 -47 201 -53 l 201 0 l 93 0 l 93 236 l 335 236 l 335 -56 z "},"”":{"ha":771,"x_min":93,"x_max":678,"o":"m 678 736 q 663 652 678 685 q 625 601 647 619 q 578 575 603 582 q 536 568 554 568 l 436 568 l 436 692 l 486 692 q 516 698 504 692 q 534 713 528 704 q 542 730 540 721 q 544 744 544 739 l 544 792 l 436 792 l 436 1028 l 678 1028 l 678 736 m 335 736 q 319 652 335 685 q 282 601 304 619 q 235 575 260 582 q 193 568 211 568 l 93 568 l 93 692 l 143 692 q 174 698 163 692 q 192 713 186 704 q 201 730 199 721 q 203 744 203 739 l 203 792 l 93 792 l 93 1028 l 335 1028 l 335 736 z "},"»":{"ha":586,"x_min":65,"x_max":521,"o":"m 65 338 l 136 400 l 65 465 l 65 658 l 244 476 l 244 319 l 65 143 l 65 338 m 342 338 l 414 400 l 342 465 l 342 658 l 521 476 l 521 319 l 342 143 l 342 338 z "},"…":{"ha":1389,"x_min":113,"x_max":1278,"o":"m 1278 0 l 1038 0 l 1038 236 l 1278 236 l 1278 0 m 815 0 l 575 0 l 575 236 l 815 236 l 815 0 m 353 0 l 113 0 l 113 236 l 353 236 l 353 0 z "},"‰":{"ha":1747,"x_min":50,"x_max":1697,"o":"m 725 1028 l 886 1028 l 460 0 l 300 0 l 725 1028 m 1350 231 q 1378 162 1350 190 q 1447 133 1407 133 q 1515 162 1486 133 q 1543 231 1543 190 q 1515 300 1543 272 q 1447 328 1486 328 q 1378 299 1406 328 q 1350 231 1350 271 m 1196 231 q 1215 328 1196 282 q 1269 408 1235 374 q 1349 463 1304 443 q 1447 482 1394 482 q 1544 463 1499 482 q 1624 408 1590 443 q 1678 328 1658 374 q 1697 231 1697 282 q 1677 132 1697 178 q 1623 52 1657 86 q 1543 -1 1589 18 q 1447 -21 1497 -21 q 1350 -1 1396 -21 q 1270 52 1304 18 q 1216 132 1236 86 q 1196 231 1196 178 m 794 231 q 823 162 794 190 q 892 133 851 133 q 959 162 931 133 q 988 231 988 190 q 959 300 988 272 q 892 328 931 328 q 822 299 850 328 q 794 231 794 271 m 640 231 q 660 328 640 282 q 714 408 679 374 q 794 463 749 443 q 892 482 839 482 q 989 463 943 482 q 1069 408 1035 443 q 1122 328 1103 374 q 1142 231 1142 282 q 1122 132 1142 178 q 1067 52 1101 86 q 988 -1 1033 18 q 892 -21 942 -21 q 794 -1 840 -21 q 715 52 749 18 q 660 132 681 86 q 640 231 640 178 m 204 797 q 232 730 204 758 q 300 701 260 701 q 367 729 338 701 q 396 799 396 757 q 368 867 396 839 q 300 894 340 894 q 232 867 260 894 q 204 797 204 839 m 50 797 q 69 894 50 849 q 123 975 89 940 q 203 1029 157 1010 q 300 1049 249 1049 q 397 1029 351 1049 q 477 975 443 1010 q 531 894 511 940 q 550 797 550 849 q 531 699 550 744 q 477 620 511 654 q 397 567 443 586 q 300 547 351 547 q 203 567 249 547 q 124 620 158 586 q 70 699 90 654 q 50 797 50 744 z "},"¿":{"ha":822,"x_min":57,"x_max":754,"o":"m 321 771 l 563 771 l 563 535 l 321 535 l 321 771 m 753 93 q 754 78 754 83 q 754 68 754 74 q 727 -70 754 -7 q 651 -180 700 -133 q 535 -252 603 -226 q 389 -278 468 -278 q 247 -251 308 -278 q 142 -183 185 -225 q 78 -87 100 -140 q 57 17 57 -35 q 71 103 57 64 q 107 176 85 143 q 158 236 129 208 q 214 290 186 264 q 268 343 247 321 q 300 382 289 365 q 315 413 311 399 q 321 443 319 428 l 563 443 q 553 377 563 407 q 524 319 543 347 q 479 261 506 290 q 418 199 453 232 q 344 113 365 147 q 324 46 324 79 q 342 -16 324 8 q 403 -40 360 -40 q 457 -27 438 -40 q 485 6 476 -14 q 497 50 494 26 q 499 93 499 74 l 753 93 z "},"`":{"ha":771,"x_min":154,"x_max":561,"o":"m 561 988 l 497 853 l 154 1003 l 225 1165 l 561 988 z "},"´":{"ha":771,"x_min":210,"x_max":617,"o":"m 617 1014 l 275 863 l 210 999 l 543 1178 l 617 1014 z "},"ˆ":{"ha":771,"x_min":97,"x_max":672,"o":"m 322 889 l 97 889 l 314 1119 l 464 1119 l 672 889 l 450 889 l 386 969 l 322 889 z "},"˜":{"ha":771,"x_min":104,"x_max":667,"o":"m 667 956 q 592 918 631 932 q 510 904 554 904 q 460 910 492 904 q 396 922 429 915 q 333 935 363 929 q 288 940 303 940 q 234 932 257 940 q 188 914 211 924 l 104 1036 q 172 1068 131 1051 q 257 1085 213 1085 q 279 1084 269 1085 q 303 1081 289 1083 q 341 1073 318 1078 q 403 1060 364 1068 q 447 1051 426 1053 q 482 1050 468 1050 q 535 1056 514 1050 q 583 1074 557 1063 l 667 956 z "},"¯":{"ha":771,"x_min":136,"x_max":635,"o":"m 635 914 l 136 914 l 136 1089 l 635 1089 l 635 914 z "},"ˉ":{"ha":771,"x_min":136,"x_max":635,"o":"m 635 914 l 136 914 l 136 1089 l 635 1089 l 635 914 z "},"˘":{"ha":771,"x_min":99,"x_max":671,"o":"m 256 1094 q 269 1078 263 1088 q 292 1063 276 1069 q 331 1051 307 1056 q 392 1046 354 1046 q 415 1047 400 1046 q 449 1052 431 1047 q 484 1067 467 1057 q 514 1094 501 1076 l 671 1094 q 646 1008 668 1046 q 588 946 624 971 q 385 894 510 894 q 272 907 324 894 q 183 944 221 919 q 124 1007 146 969 q 99 1094 103 1044 l 256 1094 z "},"˙":{"ha":771,"x_min":275,"x_max":496,"o":"m 275 1104 l 496 1104 l 496 894 l 275 894 l 275 1104 z "},"¨":{"ha":771,"x_min":113,"x_max":657,"o":"m 436 1104 l 657 1104 l 657 894 l 436 894 l 436 1104 m 113 1104 l 333 1104 l 333 894 l 113 894 l 113 1104 z "},"˚":{"ha":771,"x_min":210,"x_max":560,"o":"m 324 1008 q 342 966 324 983 q 385 949 360 949 q 428 966 410 949 q 446 1010 446 983 q 428 1053 446 1035 q 385 1071 411 1071 q 340 1052 357 1071 q 324 1008 324 1033 m 560 1008 q 546 940 560 972 q 508 885 532 908 q 453 847 485 861 q 385 833 421 833 q 317 847 349 833 q 261 885 285 861 q 224 940 238 908 q 210 1008 210 972 q 224 1076 210 1044 q 261 1132 238 1108 q 317 1169 285 1156 q 385 1183 349 1183 q 453 1169 421 1183 q 508 1132 485 1156 q 546 1076 532 1108 q 560 1008 560 1044 z "},"¸":{"ha":771,"x_min":232,"x_max":539,"o":"m 392 -74 q 421 -69 404 -69 q 461 -76 440 -69 q 499 -99 482 -83 q 528 -139 517 -115 q 539 -196 539 -162 q 529 -248 539 -222 q 501 -294 519 -274 q 452 -328 482 -315 q 383 -340 422 -340 q 352 -337 375 -340 q 305 -322 329 -335 q 259 -282 281 -308 q 232 -210 238 -256 l 338 -210 q 351 -236 343 -224 q 383 -249 360 -249 q 420 -234 407 -249 q 433 -196 433 -219 q 419 -161 433 -174 q 386 -149 406 -149 q 364 -155 372 -149 q 349 -169 356 -161 l 258 -121 l 317 0 l 432 0 l 392 -74 z "},"˝":{"ha":771,"x_min":142,"x_max":685,"o":"m 685 1076 l 565 833 l 418 899 l 522 1156 l 685 1076 m 408 1076 l 289 833 l 142 899 l 244 1156 l 408 1076 z "},"˛":{"ha":771,"x_min":243,"x_max":528,"o":"m 528 -264 q 474 -279 501 -272 q 408 -286 446 -286 q 335 -275 367 -286 q 284 -245 304 -264 q 253 -202 264 -226 q 243 -151 243 -178 q 248 -116 243 -133 q 266 -81 253 -99 q 301 -43 279 -62 q 358 0 324 -24 l 475 0 q 453 -12 467 -4 q 427 -33 440 -21 q 405 -60 414 -44 q 396 -94 396 -76 q 415 -141 396 -121 q 463 -161 435 -161 q 492 -157 478 -161 q 528 -144 507 -153 l 528 -264 z "},"ˇ":{"ha":771,"x_min":97,"x_max":672,"o":"m 449 1110 l 672 1110 l 457 879 l 307 879 l 97 1110 l 321 1110 l 385 1029 l 449 1110 z "},"—":{"ha":1389,"x_min":49,"x_max":1340,"o":"m 1340 288 l 49 288 l 49 514 l 1340 514 l 1340 288 z "},"Æ":{"ha":1354,"x_min":-14,"x_max":1285,"o":"m 714 375 l 714 654 l 711 654 l 522 375 l 714 375 m 415 172 l 304 0 l -14 0 l 700 1028 l 1285 1028 l 1285 797 l 968 797 l 968 638 l 1275 638 l 1275 407 l 968 407 l 968 231 l 1285 231 l 1285 0 l 714 0 l 714 172 l 415 172 z "},"ª":{"ha":535,"x_min":26,"x_max":463,"o":"m 164 835 q 168 809 164 824 q 182 782 172 794 q 207 761 192 769 q 244 753 222 753 q 283 761 267 753 q 308 782 299 769 q 322 809 318 794 q 326 835 326 824 q 306 891 326 865 q 244 917 285 917 q 183 890 203 917 q 164 835 164 863 m 463 636 l 325 636 l 325 676 l 322 676 q 276 632 306 642 q 221 622 247 622 q 144 639 179 622 q 82 684 108 656 q 41 751 56 713 q 26 835 26 790 q 43 926 26 886 q 87 992 60 965 q 150 1033 114 1019 q 224 1047 186 1047 q 324 993 294 1047 l 322 993 l 325 993 l 325 1033 l 463 1033 l 463 636 z "},"Ø":{"ha":1182,"x_min":49,"x_max":1133,"o":"m 501 226 q 535 217 514 222 q 593 211 557 211 q 717 240 665 211 q 803 314 769 269 q 854 411 838 358 q 871 513 871 464 q 863 588 871 549 q 831 671 854 628 l 501 226 m 678 803 q 646 812 667 807 q 592 817 625 817 q 468 789 521 817 q 381 718 415 761 q 328 622 346 675 q 311 518 311 568 q 322 431 311 474 q 349 360 333 389 l 678 803 m 913 1119 l 1076 1000 l 988 881 q 1031 829 1006 861 q 1078 751 1056 797 q 1117 646 1101 706 q 1133 514 1133 586 q 1093 310 1133 407 q 981 140 1053 214 q 808 24 908 67 q 589 -19 708 -19 q 442 -1 497 -19 q 357 29 386 17 l 269 -87 l 106 33 l 192 149 q 147 203 171 171 q 100 281 122 236 q 63 384 78 326 q 49 514 49 442 q 90 724 49 626 q 205 893 132 821 q 377 1006 278 965 q 592 1047 476 1047 q 701 1038 640 1047 q 824 999 761 1028 l 913 1119 z "},"Œ":{"ha":1507,"x_min":49,"x_max":1438,"o":"m 311 511 q 326 414 311 467 q 375 316 342 361 q 460 241 408 271 q 586 211 513 211 q 706 238 654 211 q 794 308 758 264 q 847 406 829 351 q 864 518 864 461 q 844 633 864 579 q 789 728 825 688 q 702 793 753 769 q 588 817 651 817 q 465 789 517 817 q 379 717 414 761 q 328 619 344 674 q 311 511 311 565 m 1438 797 l 1118 797 l 1118 638 l 1426 638 l 1426 407 l 1118 407 l 1118 231 l 1438 231 l 1438 0 l 865 0 l 865 68 q 788 23 826 40 q 713 -4 750 6 q 644 -17 676 -14 q 582 -19 611 -19 q 369 24 467 -19 q 200 140 271 67 q 89 308 129 213 q 49 511 49 404 q 85 709 49 613 q 192 881 122 806 q 361 1001 261 956 q 589 1047 461 1047 q 692 1038 647 1047 q 769 1015 736 1029 q 825 987 801 1001 q 865 960 849 972 l 865 1028 l 1438 1028 l 1438 797 z "},"º":{"ha":535,"x_min":51,"x_max":482,"o":"m 189 835 q 212 776 189 799 q 267 753 235 753 q 322 776 299 753 q 344 835 344 799 q 322 894 344 871 q 267 917 299 917 q 212 894 235 917 q 189 835 189 871 m 51 835 q 65 910 51 872 q 104 978 78 947 q 172 1028 131 1008 q 267 1047 213 1047 q 362 1028 321 1047 q 429 978 403 1008 q 469 910 456 947 q 482 835 482 872 q 469 760 482 797 q 429 692 456 722 q 362 642 403 661 q 267 622 321 622 q 172 642 213 622 q 104 692 131 661 q 65 760 78 722 q 51 835 51 797 z "},"æ":{"ha":1515,"x_min":47,"x_max":1471,"o":"m 278 390 q 293 308 278 344 q 335 245 308 271 q 397 205 361 219 q 474 190 433 190 q 547 205 513 190 q 607 246 582 219 q 647 307 632 272 q 661 383 661 342 q 648 462 661 425 q 609 525 635 499 q 547 567 583 551 q 465 582 511 582 q 376 560 413 582 q 319 508 340 539 q 288 445 297 478 q 278 390 278 413 m 1243 467 q 1175 572 1222 543 q 1071 601 1128 601 q 993 588 1025 601 q 940 553 961 574 q 906 508 918 532 q 892 467 894 485 l 1243 467 m 886 314 q 911 244 892 272 q 956 200 931 217 q 1010 176 982 183 q 1063 169 1039 169 q 1116 176 1093 169 q 1157 194 1139 183 q 1188 218 1175 206 q 1213 243 1201 231 l 1444 243 q 1354 98 1404 151 q 1254 17 1304 44 q 1158 -17 1204 -10 q 1079 -25 1113 -25 q 992 -10 1028 -24 q 931 19 956 3 q 893 51 907 35 q 874 76 879 67 l 871 76 l 871 0 l 661 0 l 661 76 l 658 76 q 626 37 647 56 q 575 3 604 18 q 511 -19 546 -11 q 439 -25 476 -26 q 269 14 343 -25 q 147 113 196 53 q 72 246 97 174 q 47 385 47 318 q 76 547 47 471 q 158 678 106 622 q 284 765 211 733 q 444 797 357 797 q 511 790 478 797 q 574 769 544 782 q 625 737 603 756 q 658 696 647 718 l 661 696 l 661 771 l 871 771 l 871 697 l 874 697 q 893 722 879 706 q 932 753 907 738 q 994 782 957 769 q 1085 797 1031 794 q 1225 769 1156 797 q 1349 686 1294 740 q 1438 552 1404 632 q 1471 371 1471 472 q 1469 337 1471 347 q 1465 314 1468 326 l 886 314 z "},"ı":{"ha":397,"x_min":83,"x_max":314,"o":"m 314 0 l 83 0 l 83 771 l 314 771 l 314 0 z "},"ø":{"ha":925,"x_min":47,"x_max":878,"o":"m 428 194 q 442 192 435 193 q 463 190 450 190 q 540 207 506 190 q 599 251 575 224 q 635 314 622 279 q 647 386 647 349 q 641 437 647 418 q 631 467 635 456 l 428 194 m 501 576 q 485 579 494 578 q 464 581 476 581 q 391 565 425 581 q 332 524 357 550 q 292 463 307 499 q 278 386 278 428 q 284 333 278 354 q 296 300 290 311 l 501 576 m 717 879 l 865 772 l 779 657 q 853 530 828 599 q 878 386 878 461 q 852 240 878 313 q 774 108 826 167 q 644 12 722 49 q 464 -25 567 -25 q 357 -13 399 -25 q 296 7 315 -1 l 206 -115 l 60 -4 l 144 110 q 74 231 100 160 q 47 383 47 303 q 73 529 47 456 q 150 662 99 603 q 280 758 201 721 q 464 796 358 796 q 574 783 531 796 q 632 764 617 771 l 717 879 z "},"œ":{"ha":1494,"x_min":47,"x_max":1451,"o":"m 278 385 q 292 309 278 344 q 332 247 307 274 q 391 205 357 221 q 465 189 425 189 q 545 208 511 189 q 602 255 579 226 q 637 318 625 283 q 649 386 649 353 q 635 458 649 424 q 598 521 622 493 q 540 565 574 549 q 464 582 506 582 q 398 569 431 582 q 338 531 365 556 q 294 469 311 506 q 278 385 278 432 m 1221 468 q 1158 567 1206 532 q 1047 601 1110 601 q 935 566 985 601 q 874 468 885 531 l 1221 468 m 1425 240 q 1381 160 1410 206 q 1306 72 1351 114 q 1194 2 1258 31 q 1044 -26 1131 -26 q 928 -10 978 -26 q 844 28 879 6 q 788 74 810 50 q 756 113 767 97 q 722 74 743 97 q 665 28 700 50 q 578 -10 629 6 q 456 -26 526 -26 q 298 5 372 -26 q 168 91 224 36 q 80 221 113 146 q 47 383 47 296 q 76 539 47 464 q 158 671 104 614 q 290 763 213 728 q 467 797 368 797 q 558 786 514 797 q 639 757 601 775 q 706 715 676 739 q 756 665 736 692 q 804 715 774 692 q 872 757 835 739 q 953 786 910 775 q 1044 797 997 797 q 1203 765 1129 797 q 1332 677 1276 733 q 1419 544 1388 621 q 1451 378 1451 467 q 1449 342 1451 356 q 1444 314 1447 329 l 867 314 q 919 210 874 251 q 1039 169 964 169 q 1132 192 1099 169 q 1189 240 1165 214 l 1425 240 z "},"ß":{"ha":964,"x_min":81,"x_max":917,"o":"m 311 290 l 440 290 q 451 260 444 278 q 470 227 457 243 q 505 201 483 211 q 560 190 526 190 q 614 201 590 190 q 653 230 638 213 q 678 269 669 247 q 686 315 686 292 q 682 349 686 328 q 662 392 678 371 q 615 428 646 413 q 531 444 583 444 l 406 444 l 406 618 l 453 618 q 538 648 507 618 q 569 724 569 678 q 535 808 569 776 q 447 839 501 839 q 368 815 396 839 q 328 761 340 792 q 313 701 315 731 q 311 658 311 671 l 311 290 m 81 0 l 81 593 q 84 701 81 654 q 97 787 88 749 q 124 857 107 825 q 169 919 142 889 q 313 1021 231 988 q 474 1054 394 1054 q 606 1030 546 1054 q 710 965 667 1006 q 776 872 753 924 q 800 764 800 819 q 789 690 800 721 q 762 639 778 660 q 729 605 746 618 q 701 585 713 592 q 782 550 743 574 q 851 492 821 526 q 899 413 881 457 q 917 317 917 368 q 892 192 917 254 q 820 83 867 131 q 707 5 774 35 q 558 -25 640 -25 q 468 -14 507 -25 q 400 14 429 -3 q 349 51 371 31 q 311 89 328 71 l 311 0 l 81 0 z "},"÷":{"ha":833,"x_min":67,"x_max":767,"o":"m 525 -79 l 307 -79 l 307 143 l 525 143 l 525 -79 m 525 560 l 307 560 l 307 782 l 525 782 l 525 560 m 67 240 l 67 463 l 767 463 l 767 240 l 67 240 z "},"®":{"ha":1111,"x_min":25,"x_max":1088,"o":"m 558 940 q 393 906 469 940 q 260 815 317 872 q 172 679 204 757 q 140 514 140 601 q 174 347 140 425 q 263 212 207 269 q 395 121 319 154 q 557 88 471 88 q 717 121 642 88 q 850 211 793 154 q 940 346 907 268 q 972 514 972 424 q 940 677 972 600 q 853 813 908 754 q 722 906 797 871 q 558 940 646 940 m 560 1047 q 766 1004 669 1047 q 934 888 863 961 q 1047 719 1006 815 q 1088 514 1088 622 q 1046 306 1088 403 q 932 137 1004 210 q 763 22 860 64 q 557 -19 667 -19 q 350 23 447 -19 q 181 138 253 65 q 67 307 108 210 q 25 514 25 404 q 66 718 25 621 q 178 888 107 815 q 348 1004 250 961 q 560 1047 446 1047 m 476 714 l 476 547 l 547 547 q 576 549 558 547 q 609 558 593 550 q 637 585 625 567 q 649 638 649 604 q 638 681 649 665 q 613 703 628 696 q 583 713 599 711 q 556 714 567 714 l 476 714 m 579 815 q 661 806 622 815 q 730 777 700 797 q 778 725 760 757 q 796 649 796 693 q 792 611 796 631 q 777 573 788 592 q 748 537 767 554 q 700 506 729 519 q 731 489 717 499 q 756 464 744 479 q 775 425 768 449 q 785 368 782 401 q 789 306 788 329 q 792 269 790 283 q 797 244 794 254 q 803 224 799 235 l 660 224 q 652 252 656 232 q 647 295 649 272 q 643 338 644 318 q 640 365 642 358 q 635 393 639 378 q 621 421 632 408 q 590 442 610 433 q 535 451 569 451 l 476 451 l 476 224 l 329 224 l 329 815 l 579 815 z "},"ç":{"ha":906,"x_min":46,"x_max":863,"o":"m 324 -121 l 374 -17 q 242 35 303 -3 q 138 125 182 72 q 70 245 94 178 q 46 388 46 313 q 77 547 46 472 q 163 678 108 622 q 292 765 218 733 q 453 797 367 797 q 597 773 529 797 q 719 706 665 749 q 809 604 772 664 q 861 474 846 544 l 628 474 q 604 510 618 492 q 571 542 590 528 q 524 567 551 557 q 461 576 497 576 q 386 564 419 578 q 328 524 353 550 q 291 462 304 497 q 278 386 278 426 q 291 308 278 344 q 328 246 304 272 q 386 205 353 219 q 461 190 419 190 q 524 200 497 190 q 571 224 551 210 q 604 257 590 239 q 628 293 618 275 l 863 293 q 814 174 847 231 q 731 76 781 118 q 619 8 682 33 q 485 -22 557 -18 l 457 -74 q 486 -69 469 -69 q 524 -76 504 -69 q 563 -99 544 -83 q 592 -139 581 -115 q 604 -196 604 -162 q 594 -248 604 -222 q 566 -294 585 -274 q 517 -328 547 -315 q 449 -340 488 -340 q 417 -337 440 -340 q 370 -322 394 -335 q 324 -282 346 -308 q 297 -210 303 -256 l 403 -210 q 417 -236 408 -224 q 449 -249 425 -249 q 485 -234 472 -249 q 499 -196 499 -219 q 485 -161 499 -174 q 451 -149 471 -149 q 429 -155 438 -149 q 414 -169 421 -161 l 324 -121 z "},"±":{"ha":833,"x_min":67,"x_max":767,"o":"m 67 108 l 767 108 l 767 -114 l 67 -114 l 67 108 m 306 772 l 528 772 l 528 583 l 767 583 l 767 361 l 528 361 l 528 181 l 306 181 l 306 361 l 67 361 l 67 583 l 306 583 l 306 772 z "},"Ç":{"ha":1156,"x_min":51,"x_max":1113,"o":"m 453 -121 l 506 -12 q 319 51 403 3 q 176 172 235 100 q 84 332 117 243 q 51 515 51 421 q 88 709 51 614 q 194 879 125 804 q 364 1001 264 954 q 590 1047 464 1047 q 804 1006 711 1047 q 962 903 897 964 q 1064 769 1026 842 q 1113 638 1101 697 l 838 638 q 806 698 826 667 q 756 756 786 729 q 683 799 725 782 q 589 817 642 817 q 472 790 522 817 q 385 722 421 764 q 332 625 350 679 q 314 517 314 571 q 333 403 314 458 q 388 306 353 349 q 475 237 424 263 q 590 211 526 211 q 696 233 651 211 q 769 285 740 256 q 815 342 799 314 q 838 385 831 371 l 1113 385 q 1044 224 1090 297 q 932 99 997 151 q 786 16 867 46 q 617 -18 706 -14 l 586 -74 q 615 -69 599 -69 q 653 -76 633 -69 q 692 -99 674 -83 q 722 -139 710 -115 q 733 -196 733 -162 q 724 -248 733 -222 q 695 -294 714 -274 q 647 -328 676 -315 q 578 -340 617 -340 q 547 -337 569 -340 q 499 -322 524 -335 q 453 -282 475 -308 q 426 -210 432 -256 l 532 -210 q 546 -236 538 -224 q 578 -249 554 -249 q 615 -234 601 -249 q 628 -196 628 -219 q 614 -161 628 -174 q 581 -149 600 -149 q 558 -155 567 -149 q 543 -169 550 -161 l 453 -121 z "},"©":{"ha":1111,"x_min":25,"x_max":1088,"o":"m 558 940 q 393 906 469 940 q 260 814 317 872 q 172 678 204 756 q 140 514 140 601 q 174 347 140 425 q 263 212 207 269 q 395 121 319 154 q 557 88 471 88 q 717 121 642 88 q 850 211 793 154 q 940 346 907 268 q 972 514 972 424 q 940 678 972 600 q 853 814 908 756 q 722 906 797 872 q 558 940 646 940 m 560 1047 q 766 1004 669 1047 q 934 888 863 961 q 1047 719 1006 815 q 1088 514 1088 622 q 1046 306 1088 403 q 932 137 1004 210 q 763 22 860 64 q 557 -19 667 -19 q 350 23 447 -19 q 181 138 253 65 q 67 307 108 210 q 25 514 25 404 q 66 719 25 622 q 178 888 107 815 q 348 1004 250 961 q 560 1047 446 1047 m 681 606 q 658 655 672 636 q 628 684 644 674 q 595 697 613 694 q 564 700 578 700 q 491 683 519 700 q 446 638 463 665 q 422 578 429 611 q 415 517 415 546 q 424 448 415 481 q 450 390 432 415 q 497 351 468 365 q 564 336 525 336 q 586 338 569 336 q 622 351 603 340 q 658 387 640 363 q 685 457 676 411 l 832 457 q 749 274 822 340 q 558 208 675 208 q 436 232 490 208 q 344 297 382 256 q 287 394 307 338 q 267 518 267 451 q 285 634 267 578 q 342 733 304 690 q 435 802 379 776 q 563 828 490 828 q 673 808 625 828 q 754 756 721 788 q 806 685 788 725 q 826 606 824 644 l 681 606 z "},"¬":{"ha":833,"x_min":46,"x_max":774,"o":"m 551 396 l 46 396 l 46 618 l 774 618 l 774 150 l 551 150 l 551 396 z "},"™":{"ha":1375,"x_min":29,"x_max":1221,"o":"m 536 1028 l 757 1028 l 878 643 l 881 643 l 1000 1028 l 1221 1028 l 1221 411 l 1058 411 l 1061 829 l 1058 829 l 938 411 l 821 411 l 696 829 l 693 826 l 699 411 l 536 411 l 536 1028 m 156 881 l 29 881 l 29 1028 l 456 1028 l 456 881 l 331 881 l 331 411 l 156 411 l 156 881 z "},"°":{"ha":556,"x_min":79,"x_max":476,"o":"m 278 592 q 200 607 236 592 q 137 649 164 622 q 94 713 110 676 q 79 790 79 749 q 94 868 79 832 q 137 931 110 904 q 200 974 164 958 q 278 989 236 989 q 356 974 319 989 q 419 931 392 958 q 461 868 446 904 q 476 790 476 832 q 461 713 476 749 q 419 649 446 676 q 356 607 392 622 q 278 592 319 592 m 278 706 q 335 731 311 706 q 360 790 360 756 q 335 849 360 824 q 278 875 311 875 q 220 849 244 875 q 196 790 196 824 q 220 731 196 756 q 278 706 244 706 z "},"µ":{"ha":881,"x_min":72,"x_max":807,"o":"m 72 771 l 303 771 l 303 390 q 309 317 303 353 q 331 253 315 282 q 372 208 346 225 q 439 190 399 190 q 506 208 479 190 q 548 253 532 225 q 570 317 564 282 q 576 390 576 353 l 576 771 l 807 771 l 807 0 l 588 0 l 588 96 l 586 96 l 583 96 q 569 66 579 85 q 542 29 560 47 q 500 -1 525 11 q 442 -14 475 -14 q 351 12 383 -14 q 306 61 318 38 l 303 61 l 303 -264 l 72 -264 l 72 771 z "},"μ":{"ha":881,"x_min":72,"x_max":807,"o":"m 72 771 l 303 771 l 303 390 q 309 317 303 353 q 331 253 315 282 q 372 208 346 225 q 439 190 399 190 q 506 208 479 190 q 548 253 532 225 q 570 317 564 282 q 576 390 576 353 l 576 771 l 807 771 l 807 0 l 588 0 l 588 96 l 586 96 l 583 96 q 569 66 579 85 q 542 29 560 47 q 500 -1 525 11 q 442 -14 475 -14 q 351 12 383 -14 q 306 61 318 38 l 303 61 l 303 -264 l 72 -264 l 72 771 z "},"Á":{"ha":1053,"x_min":13,"x_max":1040,"o":"m 758 1215 l 417 1064 l 351 1200 l 685 1379 l 758 1215 m 421 357 l 636 357 l 531 708 l 529 708 l 526 708 l 421 357 m 349 149 l 294 0 l 13 0 l 425 1028 l 632 1028 l 1040 0 l 756 0 l 706 149 l 349 149 z "},"Â":{"ha":1053,"x_min":13,"x_max":1040,"o":"m 464 1090 l 239 1090 l 456 1321 l 606 1321 l 814 1090 l 592 1090 l 528 1171 l 464 1090 m 421 357 l 636 357 l 531 708 l 529 708 l 526 708 l 421 357 m 349 149 l 294 0 l 13 0 l 425 1028 l 632 1028 l 1040 0 l 756 0 l 706 149 l 349 149 z "},"Ä":{"ha":1053,"x_min":13,"x_max":1040,"o":"m 578 1306 l 799 1306 l 799 1096 l 578 1096 l 578 1306 m 254 1306 l 475 1306 l 475 1096 l 254 1096 l 254 1306 m 421 357 l 636 357 l 531 708 l 529 708 l 526 708 l 421 357 m 349 149 l 294 0 l 13 0 l 425 1028 l 632 1028 l 1040 0 l 756 0 l 706 149 l 349 149 z "},"À":{"ha":1053,"x_min":13,"x_max":1040,"o":"m 703 1189 l 639 1054 l 296 1204 l 367 1367 l 703 1189 m 421 357 l 636 357 l 531 708 l 529 708 l 526 708 l 421 357 m 349 149 l 294 0 l 13 0 l 425 1028 l 632 1028 l 1040 0 l 756 0 l 706 149 l 349 149 z "},"Å":{"ha":1053,"x_min":13,"x_max":1040,"o":"m 465 1238 q 483 1195 465 1213 q 526 1178 501 1178 q 569 1195 551 1178 q 588 1239 588 1213 q 570 1282 588 1264 q 526 1300 553 1300 q 482 1281 499 1300 q 465 1238 465 1263 m 701 1238 q 688 1169 701 1201 q 650 1114 674 1138 q 594 1076 626 1090 q 526 1063 563 1063 q 458 1076 490 1063 q 403 1114 426 1090 q 365 1169 379 1138 q 351 1238 351 1201 q 365 1306 351 1274 q 403 1361 379 1338 q 458 1399 426 1385 q 526 1413 490 1413 q 594 1399 563 1413 q 650 1361 626 1385 q 688 1306 674 1338 q 701 1238 701 1274 m 421 357 l 636 357 l 531 708 l 529 708 l 526 708 l 421 357 m 349 149 l 294 0 l 13 0 l 425 1028 l 632 1028 l 1040 0 l 756 0 l 706 149 l 349 149 z "},"Ã":{"ha":1053,"x_min":13,"x_max":1040,"o":"m 808 1185 q 734 1147 772 1161 q 651 1133 696 1133 q 602 1139 633 1133 q 538 1151 571 1144 q 474 1164 504 1158 q 429 1169 444 1169 q 376 1161 399 1169 q 329 1143 353 1153 l 246 1265 q 313 1297 272 1281 q 399 1314 354 1314 q 421 1313 411 1314 q 445 1310 431 1313 q 483 1302 460 1307 q 544 1289 506 1297 q 589 1281 568 1282 q 624 1279 610 1279 q 677 1285 656 1279 q 725 1303 699 1292 l 808 1185 m 421 357 l 636 357 l 531 708 l 529 708 l 526 708 l 421 357 m 349 149 l 294 0 l 13 0 l 425 1028 l 632 1028 l 1040 0 l 756 0 l 706 149 l 349 149 z "},"É":{"ha":733,"x_min":93,"x_max":664,"o":"m 599 1243 l 257 1092 l 192 1228 l 525 1407 l 599 1243 m 93 1028 l 664 1028 l 664 797 l 344 797 l 344 638 l 654 638 l 654 407 l 344 407 l 344 231 l 664 231 l 664 0 l 93 0 l 93 1028 z "},"Ê":{"ha":733,"x_min":79,"x_max":664,"o":"m 304 1118 l 79 1118 l 296 1349 l 446 1349 l 654 1118 l 432 1118 l 368 1199 l 304 1118 m 93 1028 l 664 1028 l 664 797 l 344 797 l 344 638 l 654 638 l 654 407 l 344 407 l 344 231 l 664 231 l 664 0 l 93 0 l 93 1028 z "},"Ë":{"ha":733,"x_min":93,"x_max":664,"o":"m 418 1333 l 639 1333 l 639 1124 l 418 1124 l 418 1333 m 94 1333 l 315 1333 l 315 1124 l 94 1124 l 94 1333 m 93 1028 l 664 1028 l 664 797 l 344 797 l 344 638 l 654 638 l 654 407 l 344 407 l 344 231 l 664 231 l 664 0 l 93 0 l 93 1028 z "},"È":{"ha":733,"x_min":93,"x_max":664,"o":"m 543 1217 l 479 1082 l 136 1232 l 207 1394 l 543 1217 m 93 1028 l 664 1028 l 664 797 l 344 797 l 344 638 l 654 638 l 654 407 l 344 407 l 344 231 l 664 231 l 664 0 l 93 0 l 93 1028 z "},"Í":{"ha":449,"x_min":83,"x_max":490,"o":"m 490 1243 l 149 1092 l 83 1228 l 417 1407 l 490 1243 m 93 1028 l 356 1028 l 356 0 l 93 0 l 93 1028 z "},"Î":{"ha":449,"x_min":-64,"x_max":511,"o":"m 161 1118 l -64 1118 l 153 1349 l 303 1349 l 511 1118 l 289 1118 l 225 1199 l 161 1118 m 93 1028 l 356 1028 l 356 0 l 93 0 l 93 1028 z "},"Ï":{"ha":449,"x_min":-49,"x_max":496,"o":"m 275 1333 l 496 1333 l 496 1124 l 275 1124 l 275 1333 m -49 1333 l 172 1333 l 172 1124 l -49 1124 l -49 1333 m 93 1028 l 356 1028 l 356 0 l 93 0 l 93 1028 z "},"Ì":{"ha":449,"x_min":-42,"x_max":365,"o":"m 365 1217 l 301 1082 l -42 1232 l 29 1394 l 365 1217 m 93 1028 l 356 1028 l 356 0 l 93 0 l 93 1028 z "},"Ñ":{"ha":1054,"x_min":93,"x_max":960,"o":"m 808 1185 q 734 1147 772 1161 q 651 1133 696 1133 q 602 1139 633 1133 q 538 1151 571 1144 q 474 1164 504 1158 q 429 1169 444 1169 q 376 1161 399 1169 q 329 1143 353 1153 l 246 1265 q 313 1297 272 1281 q 399 1314 354 1314 q 421 1313 411 1314 q 445 1310 431 1313 q 483 1302 460 1307 q 544 1289 506 1297 q 589 1281 568 1282 q 624 1279 610 1279 q 677 1285 656 1279 q 725 1303 699 1292 l 808 1185 m 93 1028 l 319 1028 l 717 382 l 719 385 l 708 1028 l 960 1028 l 960 0 l 732 0 l 340 625 l 338 624 l 344 0 l 93 0 l 93 1028 z "},"Ó":{"ha":1182,"x_min":49,"x_max":1133,"o":"m 822 1243 l 481 1092 l 415 1228 l 749 1407 l 822 1243 m 311 517 q 331 402 311 457 q 387 305 350 347 q 476 237 424 263 q 594 211 528 211 q 716 240 664 211 q 802 313 768 268 q 853 410 836 357 q 871 513 871 463 q 853 616 871 563 q 802 715 836 669 q 715 788 768 760 q 592 817 663 817 q 471 790 524 817 q 383 721 418 764 q 329 624 347 678 q 311 517 311 571 m 89 721 q 150 828 110 771 q 252 934 190 885 q 398 1015 314 983 q 590 1047 482 1047 q 808 1004 708 1047 q 981 888 908 961 q 1093 718 1053 815 q 1133 514 1133 621 q 1093 310 1133 407 q 981 140 1053 213 q 808 24 908 67 q 589 -19 708 -19 q 368 25 468 -19 q 197 142 268 69 q 88 309 126 215 q 49 501 49 403 q 57 608 49 553 q 89 721 65 664 z "},"Ô":{"ha":1182,"x_min":49,"x_max":1133,"o":"m 528 1118 l 303 1118 l 519 1349 l 669 1349 l 878 1118 l 656 1118 l 592 1199 l 528 1118 m 311 517 q 331 402 311 457 q 387 305 350 347 q 476 237 424 263 q 594 211 528 211 q 716 240 664 211 q 802 313 768 268 q 853 410 836 357 q 871 513 871 463 q 853 616 871 563 q 802 715 836 669 q 715 788 768 760 q 592 817 663 817 q 471 790 524 817 q 383 721 418 764 q 329 624 347 678 q 311 517 311 571 m 89 721 q 150 828 110 771 q 252 934 190 885 q 398 1015 314 983 q 590 1047 482 1047 q 808 1004 708 1047 q 981 888 908 961 q 1093 718 1053 815 q 1133 514 1133 621 q 1093 310 1133 407 q 981 140 1053 213 q 808 24 908 67 q 589 -19 708 -19 q 368 25 468 -19 q 197 142 268 69 q 88 309 126 215 q 49 501 49 403 q 57 608 49 553 q 89 721 65 664 z "},"Ö":{"ha":1182,"x_min":49,"x_max":1133,"o":"m 642 1333 l 863 1333 l 863 1124 l 642 1124 l 642 1333 m 318 1333 l 539 1333 l 539 1124 l 318 1124 l 318 1333 m 311 517 q 331 402 311 457 q 387 305 350 347 q 476 237 424 263 q 594 211 528 211 q 716 240 664 211 q 802 313 768 268 q 853 410 836 357 q 871 513 871 463 q 853 616 871 563 q 802 715 836 669 q 715 788 768 760 q 592 817 663 817 q 471 790 524 817 q 383 721 418 764 q 329 624 347 678 q 311 517 311 571 m 89 721 q 150 828 110 771 q 252 934 190 885 q 398 1015 314 983 q 590 1047 482 1047 q 808 1004 708 1047 q 981 888 908 961 q 1093 718 1053 815 q 1133 514 1133 621 q 1093 310 1133 407 q 981 140 1053 213 q 808 24 908 67 q 589 -19 708 -19 q 368 25 468 -19 q 197 142 268 69 q 88 309 126 215 q 49 501 49 403 q 57 608 49 553 q 89 721 65 664 z "},"Ò":{"ha":1182,"x_min":49,"x_max":1133,"o":"m 767 1217 l 703 1082 l 360 1232 l 431 1394 l 767 1217 m 311 517 q 331 402 311 457 q 387 305 350 347 q 476 237 424 263 q 594 211 528 211 q 716 240 664 211 q 802 313 768 268 q 853 410 836 357 q 871 513 871 463 q 853 616 871 563 q 802 715 836 669 q 715 788 768 760 q 592 817 663 817 q 471 790 524 817 q 383 721 418 764 q 329 624 347 678 q 311 517 311 571 m 89 721 q 150 828 110 771 q 252 934 190 885 q 398 1015 314 983 q 590 1047 482 1047 q 808 1004 708 1047 q 981 888 908 961 q 1093 718 1053 815 q 1133 514 1133 621 q 1093 310 1133 407 q 981 140 1053 213 q 808 24 908 67 q 589 -19 708 -19 q 368 25 468 -19 q 197 142 268 69 q 88 309 126 215 q 49 501 49 403 q 57 608 49 553 q 89 721 65 664 z "},"Õ":{"ha":1182,"x_min":49,"x_max":1133,"o":"m 872 1185 q 798 1147 836 1161 q 715 1133 760 1133 q 666 1139 697 1133 q 601 1151 635 1144 q 538 1164 568 1158 q 493 1169 508 1169 q 440 1161 463 1169 q 393 1143 417 1153 l 310 1265 q 377 1297 336 1281 q 463 1314 418 1314 q 485 1313 475 1314 q 509 1310 494 1313 q 547 1302 524 1307 q 608 1289 569 1297 q 653 1281 632 1282 q 688 1279 674 1279 q 741 1285 719 1279 q 789 1303 763 1292 l 872 1185 m 311 517 q 331 402 311 457 q 387 305 350 347 q 476 237 424 263 q 594 211 528 211 q 716 240 664 211 q 802 313 768 268 q 853 410 836 357 q 871 513 871 463 q 853 616 871 563 q 802 715 836 669 q 715 788 768 760 q 592 817 663 817 q 471 790 524 817 q 383 721 418 764 q 329 624 347 678 q 311 517 311 571 m 89 721 q 150 828 110 771 q 252 934 190 885 q 398 1015 314 983 q 590 1047 482 1047 q 808 1004 708 1047 q 981 888 908 961 q 1093 718 1053 815 q 1133 514 1133 621 q 1093 310 1133 407 q 981 140 1053 213 q 808 24 908 67 q 589 -19 708 -19 q 368 25 468 -19 q 197 142 268 69 q 88 309 126 215 q 49 501 49 403 q 57 608 49 553 q 89 721 65 664 z "},"Ú":{"ha":969,"x_min":90,"x_max":879,"o":"m 765 1243 l 424 1092 l 358 1228 l 692 1407 l 765 1243 m 353 1028 l 353 407 q 356 347 353 381 q 371 283 358 313 q 410 232 383 253 q 486 211 438 211 q 561 230 535 211 q 600 278 588 249 q 615 342 613 307 q 617 407 617 376 l 617 1028 l 879 1028 l 879 407 q 872 294 879 342 q 852 210 865 246 q 820 145 839 174 q 776 92 801 117 q 656 10 726 40 q 489 -19 585 -19 q 423 -15 461 -19 q 344 1 385 -11 q 265 34 304 13 q 193 90 225 56 q 141 158 161 125 q 110 226 121 190 q 94 306 99 263 q 90 407 90 350 l 90 1028 l 353 1028 z "},"Û":{"ha":969,"x_min":90,"x_max":879,"o":"m 422 1118 l 197 1118 l 414 1349 l 564 1349 l 772 1118 l 550 1118 l 486 1199 l 422 1118 m 353 1028 l 353 407 q 356 347 353 381 q 371 283 358 313 q 410 232 383 253 q 486 211 438 211 q 561 230 535 211 q 600 278 588 249 q 615 342 613 307 q 617 407 617 376 l 617 1028 l 879 1028 l 879 407 q 872 294 879 342 q 852 210 865 246 q 820 145 839 174 q 776 92 801 117 q 656 10 726 40 q 489 -19 585 -19 q 423 -15 461 -19 q 344 1 385 -11 q 265 34 304 13 q 193 90 225 56 q 141 158 161 125 q 110 226 121 190 q 94 306 99 263 q 90 407 90 350 l 90 1028 l 353 1028 z "},"Ü":{"ha":969,"x_min":90,"x_max":879,"o":"m 536 1333 l 757 1333 l 757 1124 l 536 1124 l 536 1333 m 213 1333 l 433 1333 l 433 1124 l 213 1124 l 213 1333 m 353 1028 l 353 407 q 356 347 353 381 q 371 283 358 313 q 410 232 383 253 q 486 211 438 211 q 561 230 535 211 q 600 278 588 249 q 615 342 613 307 q 617 407 617 376 l 617 1028 l 879 1028 l 879 407 q 872 294 879 342 q 852 210 865 246 q 820 145 839 174 q 776 92 801 117 q 656 10 726 40 q 489 -19 585 -19 q 423 -15 461 -19 q 344 1 385 -11 q 265 34 304 13 q 193 90 225 56 q 141 158 161 125 q 110 226 121 190 q 94 306 99 263 q 90 407 90 350 l 90 1028 l 353 1028 z "},"Ù":{"ha":969,"x_min":90,"x_max":879,"o":"m 613 1217 l 549 1082 l 206 1232 l 276 1394 l 613 1217 m 353 1028 l 353 407 q 356 347 353 381 q 371 283 358 313 q 410 232 383 253 q 486 211 438 211 q 561 230 535 211 q 600 278 588 249 q 615 342 613 307 q 617 407 617 376 l 617 1028 l 879 1028 l 879 407 q 872 294 879 342 q 852 210 865 246 q 820 145 839 174 q 776 92 801 117 q 656 10 726 40 q 489 -19 585 -19 q 423 -15 461 -19 q 344 1 385 -11 q 265 34 304 13 q 193 90 225 56 q 141 158 161 125 q 110 226 121 190 q 94 306 99 263 q 90 407 90 350 l 90 1028 l 353 1028 z "},"Ÿ":{"ha":899,"x_min":13,"x_max":886,"o":"m 500 1333 l 721 1333 l 721 1124 l 500 1124 l 500 1333 m 176 1333 l 397 1333 l 397 1124 l 176 1124 l 176 1333 m 319 374 l 13 1028 l 297 1028 l 450 615 l 604 1028 l 886 1028 l 582 374 l 582 0 l 319 0 l 319 374 z "},"á":{"ha":978,"x_min":47,"x_max":893,"o":"m 721 1014 l 379 863 l 314 999 l 647 1178 l 721 1014 m 278 383 q 288 322 278 356 q 322 259 299 289 q 381 209 344 229 q 469 189 417 189 q 560 209 524 189 q 620 259 597 229 q 653 324 643 289 q 663 386 663 358 q 651 456 663 421 q 615 519 639 490 q 553 565 590 547 q 468 582 517 582 q 383 563 418 582 q 324 515 347 544 q 289 451 300 486 q 278 383 278 417 m 893 0 l 663 0 l 663 83 l 660 83 q 621 35 644 56 q 567 0 597 14 q 502 -20 536 -14 q 435 -26 468 -26 q 271 7 343 -26 q 149 97 199 40 q 74 228 100 154 q 47 386 47 303 q 79 557 47 481 q 164 687 111 633 q 287 769 217 740 q 435 797 357 797 q 519 787 482 797 q 585 760 557 776 q 631 726 613 744 q 660 689 649 707 l 663 689 l 663 771 l 893 771 l 893 0 z "},"â":{"ha":978,"x_min":47,"x_max":893,"o":"m 426 889 l 201 889 l 418 1119 l 568 1119 l 776 889 l 554 889 l 490 969 l 426 889 m 278 383 q 288 322 278 356 q 322 259 299 289 q 381 209 344 229 q 469 189 417 189 q 560 209 524 189 q 620 259 597 229 q 653 324 643 289 q 663 386 663 358 q 651 456 663 421 q 615 519 639 490 q 553 565 590 547 q 468 582 517 582 q 383 563 418 582 q 324 515 347 544 q 289 451 300 486 q 278 383 278 417 m 893 0 l 663 0 l 663 83 l 660 83 q 621 35 644 56 q 567 0 597 14 q 502 -20 536 -14 q 435 -26 468 -26 q 271 7 343 -26 q 149 97 199 40 q 74 228 100 154 q 47 386 47 303 q 79 557 47 481 q 164 687 111 633 q 287 769 217 740 q 435 797 357 797 q 519 787 482 797 q 585 760 557 776 q 631 726 613 744 q 660 689 649 707 l 663 689 l 663 771 l 893 771 l 893 0 z "},"ä":{"ha":978,"x_min":47,"x_max":893,"o":"m 540 1104 l 761 1104 l 761 894 l 540 894 l 540 1104 m 217 1104 l 438 1104 l 438 894 l 217 894 l 217 1104 m 278 383 q 288 322 278 356 q 322 259 299 289 q 381 209 344 229 q 469 189 417 189 q 560 209 524 189 q 620 259 597 229 q 653 324 643 289 q 663 386 663 358 q 651 456 663 421 q 615 519 639 490 q 553 565 590 547 q 468 582 517 582 q 383 563 418 582 q 324 515 347 544 q 289 451 300 486 q 278 383 278 417 m 893 0 l 663 0 l 663 83 l 660 83 q 621 35 644 56 q 567 0 597 14 q 502 -20 536 -14 q 435 -26 468 -26 q 271 7 343 -26 q 149 97 199 40 q 74 228 100 154 q 47 386 47 303 q 79 557 47 481 q 164 687 111 633 q 287 769 217 740 q 435 797 357 797 q 519 787 482 797 q 585 760 557 776 q 631 726 613 744 q 660 689 649 707 l 663 689 l 663 771 l 893 771 l 893 0 z "},"à":{"ha":978,"x_min":47,"x_max":893,"o":"m 665 988 l 601 853 l 258 1003 l 329 1165 l 665 988 m 278 383 q 288 322 278 356 q 322 259 299 289 q 381 209 344 229 q 469 189 417 189 q 560 209 524 189 q 620 259 597 229 q 653 324 643 289 q 663 386 663 358 q 651 456 663 421 q 615 519 639 490 q 553 565 590 547 q 468 582 517 582 q 383 563 418 582 q 324 515 347 544 q 289 451 300 486 q 278 383 278 417 m 893 0 l 663 0 l 663 83 l 660 83 q 621 35 644 56 q 567 0 597 14 q 502 -20 536 -14 q 435 -26 468 -26 q 271 7 343 -26 q 149 97 199 40 q 74 228 100 154 q 47 386 47 303 q 79 557 47 481 q 164 687 111 633 q 287 769 217 740 q 435 797 357 797 q 519 787 482 797 q 585 760 557 776 q 631 726 613 744 q 660 689 649 707 l 663 689 l 663 771 l 893 771 l 893 0 z "},"å":{"ha":978,"x_min":47,"x_max":893,"o":"m 428 1008 q 446 966 428 983 q 489 949 464 949 q 532 966 514 949 q 550 1010 550 983 q 533 1053 550 1035 q 489 1071 515 1071 q 444 1052 461 1071 q 428 1008 428 1033 m 664 1008 q 650 940 664 972 q 613 885 636 908 q 557 847 589 861 q 489 833 525 833 q 421 847 453 833 q 365 885 389 861 q 328 940 342 908 q 314 1008 314 972 q 328 1076 314 1044 q 365 1132 342 1108 q 421 1169 389 1156 q 489 1183 453 1183 q 557 1169 525 1183 q 613 1132 589 1156 q 650 1076 636 1108 q 664 1008 664 1044 m 278 383 q 288 322 278 356 q 322 259 299 289 q 381 209 344 229 q 469 189 417 189 q 560 209 524 189 q 620 259 597 229 q 653 324 643 289 q 663 386 663 358 q 651 456 663 421 q 615 519 639 490 q 553 565 590 547 q 468 582 517 582 q 383 563 418 582 q 324 515 347 544 q 289 451 300 486 q 278 383 278 417 m 893 0 l 663 0 l 663 83 l 660 83 q 621 35 644 56 q 567 0 597 14 q 502 -20 536 -14 q 435 -26 468 -26 q 271 7 343 -26 q 149 97 199 40 q 74 228 100 154 q 47 386 47 303 q 79 557 47 481 q 164 687 111 633 q 287 769 217 740 q 435 797 357 797 q 519 787 482 797 q 585 760 557 776 q 631 726 613 744 q 660 689 649 707 l 663 689 l 663 771 l 893 771 l 893 0 z "},"ã":{"ha":978,"x_min":47,"x_max":893,"o":"m 771 956 q 697 918 735 932 q 614 904 658 904 q 565 910 596 904 q 500 922 533 915 q 437 935 467 929 q 392 940 407 940 q 338 932 361 940 q 292 914 315 924 l 208 1036 q 276 1068 235 1051 q 361 1085 317 1085 q 383 1084 374 1085 q 408 1081 393 1083 q 445 1073 422 1078 q 507 1060 468 1068 q 551 1051 531 1053 q 586 1050 572 1050 q 640 1056 618 1050 q 688 1074 661 1063 l 771 956 m 278 383 q 288 322 278 356 q 322 259 299 289 q 381 209 344 229 q 469 189 417 189 q 560 209 524 189 q 620 259 597 229 q 653 324 643 289 q 663 386 663 358 q 651 456 663 421 q 615 519 639 490 q 553 565 590 547 q 468 582 517 582 q 383 563 418 582 q 324 515 347 544 q 289 451 300 486 q 278 383 278 417 m 893 0 l 663 0 l 663 83 l 660 83 q 621 35 644 56 q 567 0 597 14 q 502 -20 536 -14 q 435 -26 468 -26 q 271 7 343 -26 q 149 97 199 40 q 74 228 100 154 q 47 386 47 303 q 79 557 47 481 q 164 687 111 633 q 287 769 217 740 q 435 797 357 797 q 519 787 482 797 q 585 760 557 776 q 631 726 613 744 q 660 689 649 707 l 663 689 l 663 771 l 893 771 l 893 0 z "},"é":{"ha":897,"x_min":42,"x_max":853,"o":"m 681 1014 l 339 863 l 274 999 l 607 1178 l 681 1014 m 622 471 q 608 510 618 488 q 576 554 597 533 q 524 589 556 575 q 447 603 492 603 q 371 589 403 603 q 318 554 339 575 q 287 510 297 533 q 272 471 276 488 l 622 471 m 826 242 q 758 127 799 176 q 669 44 718 78 q 450 -25 572 -25 q 293 6 367 -25 q 163 93 219 38 q 74 223 107 149 q 42 383 42 297 q 72 539 42 464 q 156 671 101 614 q 284 763 210 728 q 446 797 358 797 q 608 765 533 797 q 738 675 683 732 q 822 541 792 618 q 853 376 853 464 q 851 341 853 353 q 847 315 850 329 l 269 315 q 331 208 281 246 q 450 169 382 169 q 535 190 503 169 q 590 242 567 211 l 826 242 z "},"ê":{"ha":897,"x_min":42,"x_max":853,"o":"m 386 889 l 161 889 l 378 1119 l 528 1119 l 736 889 l 514 889 l 450 969 l 386 889 m 622 471 q 608 510 618 488 q 576 554 597 533 q 524 589 556 575 q 447 603 492 603 q 371 589 403 603 q 318 554 339 575 q 287 510 297 533 q 272 471 276 488 l 622 471 m 826 242 q 758 127 799 176 q 669 44 718 78 q 450 -25 572 -25 q 293 6 367 -25 q 163 93 219 38 q 74 223 107 149 q 42 383 42 297 q 72 539 42 464 q 156 671 101 614 q 284 763 210 728 q 446 797 358 797 q 608 765 533 797 q 738 675 683 732 q 822 541 792 618 q 853 376 853 464 q 851 341 853 353 q 847 315 850 329 l 269 315 q 331 208 281 246 q 450 169 382 169 q 535 190 503 169 q 590 242 567 211 l 826 242 z "},"ë":{"ha":897,"x_min":42,"x_max":853,"o":"m 500 1104 l 721 1104 l 721 894 l 500 894 l 500 1104 m 176 1104 l 397 1104 l 397 894 l 176 894 l 176 1104 m 622 471 q 608 510 618 488 q 576 554 597 533 q 524 589 556 575 q 447 603 492 603 q 371 589 403 603 q 318 554 339 575 q 287 510 297 533 q 272 471 276 488 l 622 471 m 826 242 q 758 127 799 176 q 669 44 718 78 q 450 -25 572 -25 q 293 6 367 -25 q 163 93 219 38 q 74 223 107 149 q 42 383 42 297 q 72 539 42 464 q 156 671 101 614 q 284 763 210 728 q 446 797 358 797 q 608 765 533 797 q 738 675 683 732 q 822 541 792 618 q 853 376 853 464 q 851 341 853 353 q 847 315 850 329 l 269 315 q 331 208 281 246 q 450 169 382 169 q 535 190 503 169 q 590 242 567 211 l 826 242 z "},"è":{"ha":897,"x_min":42,"x_max":853,"o":"m 625 988 l 561 853 l 218 1003 l 289 1165 l 625 988 m 622 471 q 608 510 618 488 q 576 554 597 533 q 524 589 556 575 q 447 603 492 603 q 371 589 403 603 q 318 554 339 575 q 287 510 297 533 q 272 471 276 488 l 622 471 m 826 242 q 758 127 799 176 q 669 44 718 78 q 450 -25 572 -25 q 293 6 367 -25 q 163 93 219 38 q 74 223 107 149 q 42 383 42 297 q 72 539 42 464 q 156 671 101 614 q 284 763 210 728 q 446 797 358 797 q 608 765 533 797 q 738 675 683 732 q 822 541 792 618 q 853 376 853 464 q 851 341 853 353 q 847 315 850 329 l 269 315 q 331 208 281 246 q 450 169 382 169 q 535 190 503 169 q 590 242 567 211 l 826 242 z "},"í":{"ha":397,"x_min":58,"x_max":465,"o":"m 465 1014 l 124 863 l 58 999 l 392 1178 l 465 1014 m 314 0 l 83 0 l 83 771 l 314 771 l 314 0 z "},"î":{"ha":397,"x_min":-89,"x_max":486,"o":"m 136 889 l -89 889 l 128 1119 l 278 1119 l 486 889 l 264 889 l 200 969 l 136 889 m 314 0 l 83 0 l 83 771 l 314 771 l 314 0 z "},"ï":{"ha":397,"x_min":-74,"x_max":471,"o":"m 250 1104 l 471 1104 l 471 894 l 250 894 l 250 1104 m -74 1104 l 147 1104 l 147 894 l -74 894 l -74 1104 m 314 0 l 83 0 l 83 771 l 314 771 l 314 0 z "},"ì":{"ha":397,"x_min":-67,"x_max":340,"o":"m 340 988 l 276 853 l -67 1003 l 4 1165 l 340 988 m 314 0 l 83 0 l 83 771 l 314 771 l 314 0 z "},"ñ":{"ha":878,"x_min":83,"x_max":797,"o":"m 721 956 q 647 918 685 932 q 564 904 608 904 q 515 910 546 904 q 450 922 483 915 q 387 935 417 929 q 342 940 357 940 q 288 932 311 940 q 242 914 265 924 l 158 1036 q 226 1068 185 1051 q 311 1085 267 1085 q 333 1084 324 1085 q 358 1081 343 1083 q 395 1073 372 1078 q 457 1060 418 1068 q 501 1051 481 1053 q 536 1050 522 1050 q 590 1056 568 1050 q 638 1074 611 1063 l 721 956 m 83 771 l 299 771 l 299 689 l 301 689 q 324 722 310 703 q 363 757 339 740 q 424 785 388 774 q 511 797 460 797 q 622 778 567 797 q 708 731 676 758 q 740 698 724 717 q 768 650 756 679 q 789 580 781 621 q 797 482 797 539 l 797 0 l 567 0 l 567 421 q 565 469 567 442 q 551 521 563 496 q 516 563 540 546 q 446 581 492 581 q 369 562 396 581 q 331 517 343 543 q 316 465 318 492 q 314 419 314 438 l 314 0 l 83 0 l 83 771 z "},"ó":{"ha":925,"x_min":47,"x_max":878,"o":"m 694 1014 l 353 863 l 288 999 l 621 1178 l 694 1014 m 278 386 q 292 308 278 344 q 333 247 307 272 q 392 206 358 221 q 463 192 425 192 q 533 206 500 192 q 592 247 567 221 q 633 308 618 272 q 647 386 647 344 q 633 464 647 428 q 592 526 618 500 q 533 566 567 551 q 463 581 500 581 q 392 566 425 581 q 333 526 358 551 q 292 464 307 500 q 278 386 278 428 m 47 386 q 73 530 47 457 q 150 662 99 603 q 279 758 201 721 q 463 796 357 796 q 646 758 568 796 q 775 662 724 721 q 852 530 826 603 q 878 386 878 457 q 852 242 878 315 q 775 110 826 169 q 646 14 724 51 q 463 -24 568 -24 q 279 14 357 -24 q 150 110 201 51 q 73 242 99 169 q 47 386 47 315 z "},"ô":{"ha":925,"x_min":47,"x_max":878,"o":"m 400 889 l 175 889 l 392 1119 l 542 1119 l 750 889 l 528 889 l 464 969 l 400 889 m 278 386 q 292 308 278 344 q 333 247 307 272 q 392 206 358 221 q 463 192 425 192 q 533 206 500 192 q 592 247 567 221 q 633 308 618 272 q 647 386 647 344 q 633 464 647 428 q 592 526 618 500 q 533 566 567 551 q 463 581 500 581 q 392 566 425 581 q 333 526 358 551 q 292 464 307 500 q 278 386 278 428 m 47 386 q 73 530 47 457 q 150 662 99 603 q 279 758 201 721 q 463 796 357 796 q 646 758 568 796 q 775 662 724 721 q 852 530 826 603 q 878 386 878 457 q 852 242 878 315 q 775 110 826 169 q 646 14 724 51 q 463 -24 568 -24 q 279 14 357 -24 q 150 110 201 51 q 73 242 99 169 q 47 386 47 315 z "},"ö":{"ha":925,"x_min":47,"x_max":878,"o":"m 514 1104 l 735 1104 l 735 894 l 514 894 l 514 1104 m 190 1104 l 411 1104 l 411 894 l 190 894 l 190 1104 m 278 386 q 292 308 278 344 q 333 247 307 272 q 392 206 358 221 q 463 192 425 192 q 533 206 500 192 q 592 247 567 221 q 633 308 618 272 q 647 386 647 344 q 633 464 647 428 q 592 526 618 500 q 533 566 567 551 q 463 581 500 581 q 392 566 425 581 q 333 526 358 551 q 292 464 307 500 q 278 386 278 428 m 47 386 q 73 530 47 457 q 150 662 99 603 q 279 758 201 721 q 463 796 357 796 q 646 758 568 796 q 775 662 724 721 q 852 530 826 603 q 878 386 878 457 q 852 242 878 315 q 775 110 826 169 q 646 14 724 51 q 463 -24 568 -24 q 279 14 357 -24 q 150 110 201 51 q 73 242 99 169 q 47 386 47 315 z "},"ò":{"ha":925,"x_min":47,"x_max":878,"o":"m 639 988 l 575 853 l 232 1003 l 303 1165 l 639 988 m 278 386 q 292 308 278 344 q 333 247 307 272 q 392 206 358 221 q 463 192 425 192 q 533 206 500 192 q 592 247 567 221 q 633 308 618 272 q 647 386 647 344 q 633 464 647 428 q 592 526 618 500 q 533 566 567 551 q 463 581 500 581 q 392 566 425 581 q 333 526 358 551 q 292 464 307 500 q 278 386 278 428 m 47 386 q 73 530 47 457 q 150 662 99 603 q 279 758 201 721 q 463 796 357 796 q 646 758 568 796 q 775 662 724 721 q 852 530 826 603 q 878 386 878 457 q 852 242 878 315 q 775 110 826 169 q 646 14 724 51 q 463 -24 568 -24 q 279 14 357 -24 q 150 110 201 51 q 73 242 99 169 q 47 386 47 315 z "},"õ":{"ha":925,"x_min":47,"x_max":878,"o":"m 744 956 q 670 918 708 932 q 588 904 632 904 q 538 910 569 904 q 474 922 507 915 q 410 935 440 929 q 365 940 381 940 q 312 932 335 940 q 265 914 289 924 l 182 1036 q 249 1068 208 1051 q 335 1085 290 1085 q 357 1084 347 1085 q 381 1081 367 1083 q 419 1073 396 1078 q 481 1060 442 1068 q 525 1051 504 1053 q 560 1050 546 1050 q 613 1056 592 1050 q 661 1074 635 1063 l 744 956 m 278 386 q 292 308 278 344 q 333 247 307 272 q 392 206 358 221 q 463 192 425 192 q 533 206 500 192 q 592 247 567 221 q 633 308 618 272 q 647 386 647 344 q 633 464 647 428 q 592 526 618 500 q 533 566 567 551 q 463 581 500 581 q 392 566 425 581 q 333 526 358 551 q 292 464 307 500 q 278 386 278 428 m 47 386 q 73 530 47 457 q 150 662 99 603 q 279 758 201 721 q 463 796 357 796 q 646 758 568 796 q 775 662 724 721 q 852 530 826 603 q 878 386 878 457 q 852 242 878 315 q 775 110 826 169 q 646 14 724 51 q 463 -24 568 -24 q 279 14 357 -24 q 150 110 201 51 q 73 242 99 169 q 47 386 47 315 z "},"ú":{"ha":881,"x_min":81,"x_max":797,"o":"m 721 1014 l 379 863 l 314 999 l 647 1178 l 721 1014 m 797 0 l 579 0 l 579 82 l 576 82 q 533 24 558 44 q 481 -8 508 3 q 426 -22 453 -19 q 376 -25 399 -25 q 331 -22 358 -25 q 271 -9 303 -19 q 207 21 239 1 q 150 72 175 40 q 113 127 126 101 q 92 180 100 153 q 83 238 85 207 q 81 310 81 269 l 81 771 l 311 771 l 311 344 q 313 298 311 325 q 326 247 315 271 q 363 207 338 224 q 435 190 389 190 q 483 198 460 190 q 526 223 507 206 q 556 271 544 240 q 567 347 567 301 l 567 771 l 797 771 l 797 0 z "},"û":{"ha":881,"x_min":81,"x_max":797,"o":"m 378 889 l 153 889 l 369 1119 l 519 1119 l 728 889 l 506 889 l 442 969 l 378 889 m 797 0 l 579 0 l 579 82 l 576 82 q 533 24 558 44 q 481 -8 508 3 q 426 -22 453 -19 q 376 -25 399 -25 q 331 -22 358 -25 q 271 -9 303 -19 q 207 21 239 1 q 150 72 175 40 q 113 127 126 101 q 92 180 100 153 q 83 238 85 207 q 81 310 81 269 l 81 771 l 311 771 l 311 344 q 313 298 311 325 q 326 247 315 271 q 363 207 338 224 q 435 190 389 190 q 483 198 460 190 q 526 223 507 206 q 556 271 544 240 q 567 347 567 301 l 567 771 l 797 771 l 797 0 z "},"ü":{"ha":881,"x_min":81,"x_max":797,"o":"m 492 1104 l 713 1104 l 713 894 l 492 894 l 492 1104 m 168 1104 l 389 1104 l 389 894 l 168 894 l 168 1104 m 797 0 l 579 0 l 579 82 l 576 82 q 533 24 558 44 q 481 -8 508 3 q 426 -22 453 -19 q 376 -25 399 -25 q 331 -22 358 -25 q 271 -9 303 -19 q 207 21 239 1 q 150 72 175 40 q 113 127 126 101 q 92 180 100 153 q 83 238 85 207 q 81 310 81 269 l 81 771 l 311 771 l 311 344 q 313 298 311 325 q 326 247 315 271 q 363 207 338 224 q 435 190 389 190 q 483 198 460 190 q 526 223 507 206 q 556 271 544 240 q 567 347 567 301 l 567 771 l 797 771 l 797 0 z "},"ù":{"ha":881,"x_min":81,"x_max":797,"o":"m 568 988 l 504 853 l 161 1003 l 232 1165 l 568 988 m 797 0 l 579 0 l 579 82 l 576 82 q 533 24 558 44 q 481 -8 508 3 q 426 -22 453 -19 q 376 -25 399 -25 q 331 -22 358 -25 q 271 -9 303 -19 q 207 21 239 1 q 150 72 175 40 q 113 127 126 101 q 92 180 100 153 q 83 238 85 207 q 81 310 81 269 l 81 771 l 311 771 l 311 344 q 313 298 311 325 q 326 247 315 271 q 363 207 338 224 q 435 190 389 190 q 483 198 460 190 q 526 223 507 206 q 556 271 544 240 q 567 347 567 301 l 567 771 l 797 771 l 797 0 z "},"ÿ":{"ha":797,"x_min":1,"x_max":796,"o":"m 450 1104 l 671 1104 l 671 894 l 450 894 l 450 1104 m 126 1104 l 347 1104 l 347 894 l 126 894 l 126 1104 m 796 771 l 410 -257 l 165 -257 l 288 39 l 1 771 l 247 771 l 401 324 l 404 324 l 551 771 l 796 771 z "}," ":{"ha":429,"x_min":0,"x_max":0,"o":""},"#":{"ha":858,"x_min":43,"x_max":817,"o":"m 483 560 l 375 560 l 361 458 l 469 458 l 483 560 m 571 63 l 414 63 l 447 304 l 339 304 l 306 63 l 147 63 l 181 304 l 43 304 l 64 458 l 203 458 l 217 560 l 78 560 l 99 714 l 238 714 l 268 933 l 426 933 l 396 714 l 504 714 l 535 933 l 693 933 l 663 714 l 817 714 l 796 560 l 640 560 l 626 458 l 781 458 l 760 304 l 604 304 l 571 63 z "},"≠":{"ha":763,"x_min":17,"x_max":746,"o":"m 17 554 l 425 554 l 568 917 l 622 917 l 482 554 l 746 554 l 746 492 l 457 492 l 360 240 l 746 240 l 746 176 l 335 176 l 192 -182 l 138 -182 l 279 176 l 17 176 l 17 240 l 304 240 l 403 492 l 17 492 l 17 554 z "},"∞":{"ha":990,"x_min":36,"x_max":954,"o":"m 443 453 q 543 599 489 558 q 694 640 599 640 q 879 561 801 640 q 954 357 954 483 q 881 153 954 235 q 717 72 808 72 q 592 122 650 72 q 489 267 554 154 q 393 145 444 182 q 268 108 342 108 q 104 178 171 108 q 36 358 36 247 q 99 539 36 469 q 244 607 161 607 q 347 576 304 607 q 443 453 390 547 m 508 315 q 558 226 533 261 q 608 172 582 192 q 661 144 633 151 q 719 136 689 136 q 797 152 761 136 q 859 197 833 168 q 900 266 885 225 q 915 357 915 307 q 856 522 915 458 q 724 588 797 588 q 642 564 676 588 q 579 488 607 540 q 508 315 561 454 m 424 400 q 347 510 390 475 q 242 546 304 546 q 175 533 206 546 q 122 495 144 519 q 87 436 100 471 q 74 360 74 401 q 121 215 74 268 q 229 161 168 161 q 343 219 293 161 q 424 400 376 260 z "},"≤":{"ha":763,"x_min":17,"x_max":746,"o":"m 744 167 l 17 476 l 17 532 l 744 840 l 744 771 l 100 504 l 744 236 l 744 167 m 17 -47 l 746 -47 l 746 -110 l 17 -110 l 17 -47 z "},"≥":{"ha":763,"x_min":17,"x_max":746,"o":"m 17 840 l 744 531 l 744 475 l 17 167 l 17 236 l 661 503 l 17 771 l 17 840 m 17 -47 l 746 -47 l 746 -110 l 17 -110 l 17 -47 z "},"∂":{"ha":686,"x_min":43,"x_max":676,"o":"m 631 486 q 635 556 633 525 q 638 613 638 588 q 574 801 638 735 q 404 868 510 868 q 284 841 332 868 q 200 760 236 814 l 168 760 q 281 916 221 868 q 426 964 342 964 q 517 945 472 963 q 598 888 563 928 q 655 783 633 847 q 675 624 676 718 q 571 193 675 382 q 274 -21 453 -21 q 106 40 168 -21 q 43 206 43 101 q 62 324 43 267 q 110 431 81 382 q 180 517 140 479 q 261 575 219 554 q 418 615 339 615 q 519 594 474 615 q 593 543 564 574 q 631 486 611 525 m 618 426 q 540 540 592 501 q 424 579 488 579 q 303 536 363 579 q 201 389 244 494 q 158 178 158 285 q 195 60 158 101 q 290 18 232 18 q 461 106 374 18 q 618 426 569 217 z "},"∑":{"ha":990,"x_min":29,"x_max":963,"o":"m 919 -299 l 29 -299 l 29 -274 l 483 336 l 29 938 l 29 963 l 896 963 l 914 735 l 888 735 q 835 868 876 828 q 718 908 793 908 l 217 908 l 597 394 l 171 -179 l 725 -179 q 829 -161 775 -179 q 894 -116 868 -149 q 936 -12 919 -83 l 963 -18 l 919 -299 z "},"∏":{"ha":1143,"x_min":31,"x_max":1113,"o":"m 840 910 l 301 910 l 301 -168 q 326 -250 301 -226 q 411 -274 351 -274 l 436 -274 l 436 -299 l 31 -299 l 31 -274 l 56 -274 q 140 -250 115 -274 q 165 -168 165 -226 l 165 833 q 140 913 165 889 q 56 938 115 938 l 31 938 l 31 963 l 1113 963 l 1113 938 l 1089 938 q 1004 913 1029 938 q 979 833 979 889 l 979 -168 q 1004 -250 979 -226 q 1089 -274 1029 -274 l 1113 -274 l 1113 -299 l 707 -299 l 707 -274 l 731 -274 q 815 -250 790 -274 q 840 -168 840 -226 l 840 910 z "},"π":{"ha":701,"x_min":8,"x_max":675,"o":"m 674 621 l 674 522 l 517 522 l 503 317 q 499 224 499 263 q 521 108 499 129 q 574 88 543 88 q 651 169 639 88 l 675 169 q 525 -18 651 -18 q 429 18 465 -18 q 393 126 393 54 q 397 200 393 150 q 407 326 400 250 l 425 522 l 282 522 q 266 308 275 397 q 247 161 257 219 q 203 14 229 49 q 138 -18 179 -18 q 85 0 107 -18 q 64 47 64 18 q 100 125 64 76 q 181 275 153 196 q 204 376 194 314 q 221 522 214 438 l 174 522 q 89 497 118 522 q 33 426 60 472 l 8 426 q 60 546 29 499 q 124 607 90 592 q 240 621 156 621 l 674 621 z "},"∫":{"ha":381,"x_min":0,"x_max":379,"o":"m 147 1001 q 182 1174 154 1107 q 232 1242 200 1219 q 294 1264 264 1264 q 354 1241 329 1264 q 379 1190 379 1218 q 362 1140 379 1158 q 318 1121 344 1121 q 265 1144 293 1121 q 239 1158 251 1158 q 219 1149 228 1158 q 211 1115 211 1139 q 213 1077 211 1101 q 218 1017 215 1053 q 243 567 243 738 q 240 444 243 543 q 232 167 238 344 q 171 -103 225 -33 q 81 -149 135 -149 q 22 -126 44 -149 q 0 -67 0 -103 q 17 -18 0 -36 q 61 0 35 0 q 107 -21 88 0 q 142 -43 128 -43 q 168 -1 168 -43 q 166 33 168 13 q 161 79 164 53 q 144 308 150 176 q 136 607 136 476 l 147 1001 z "},"√":{"ha":763,"x_min":57,"x_max":761,"o":"m 711 1268 l 761 1268 l 550 -53 l 214 639 l 79 578 l 57 621 l 260 724 l 535 165 l 711 1268 z "},"≈":{"ha":763,"x_min":21,"x_max":743,"o":"m 743 704 q 693 568 740 617 q 579 519 646 519 q 511 529 544 519 q 325 601 475 540 q 175 644 221 644 q 95 615 128 644 q 50 521 63 585 l 21 521 q 34 598 21 564 q 69 656 47 632 q 120 692 92 679 q 178 706 149 704 q 238 696 208 706 q 322 668 274 686 q 435 622 371 650 q 542 582 504 592 q 586 578 560 578 q 672 610 638 578 q 714 704 707 642 l 743 704 m 743 371 q 693 234 740 283 q 579 185 646 185 q 476 206 547 185 l 325 268 q 175 311 221 311 q 95 282 128 311 q 50 186 63 253 l 21 186 q 33 265 21 231 q 68 323 46 300 q 119 358 90 346 q 176 372 147 371 q 238 364 206 372 q 435 289 306 343 q 495 265 468 274 q 542 250 522 256 q 586 244 558 244 q 672 276 638 244 q 714 371 707 308 l 743 371 z "},"◊":{"ha":686,"x_min":32,"x_max":656,"o":"m 372 964 l 656 481 l 372 0 l 297 0 l 32 481 l 297 964 l 372 964 m 336 899 l 106 481 l 336 64 l 579 481 l 336 899 z "},"!":{"ha":463,"x_min":113,"x_max":350,"o":"m 350 0 l 113 0 l 113 236 l 350 236 l 350 0 m 350 339 l 113 339 l 113 1028 l 350 1028 l 350 339 z "},"\"":{"ha":643,"x_min":47,"x_max":596,"o":"m 400 615 l 354 1028 l 596 1028 l 549 615 l 400 615 m 93 615 l 47 1028 l 289 1028 l 242 615 l 93 615 z "},"∕":{"ha":293,"x_min":-164,"x_max":457,"o":"m 457 1028 l 25 0 l -164 0 l 267 1028 l 457 1028 z "},"Ł":{"ha":676,"x_min":10,"x_max":667,"o":"m 10 219 l 10 481 l 100 546 l 100 1028 l 363 1028 l 363 735 l 514 843 l 514 582 l 363 474 l 363 231 l 667 231 l 667 0 l 100 0 l 100 285 l 10 219 z "},"ł":{"ha":475,"x_min":35,"x_max":440,"o":"m 35 260 l 35 499 l 119 553 l 119 1028 l 350 1028 l 350 701 l 440 760 l 440 521 l 350 463 l 350 0 l 119 0 l 119 314 l 35 260 z "},"¾":{"ha":1389,"x_min":57,"x_max":1332,"o":"m 236 601 q 241 584 238 593 q 252 567 244 575 q 272 554 260 560 q 306 549 285 549 q 372 608 372 549 q 357 644 372 626 q 304 661 342 661 l 228 661 l 228 786 l 261 786 q 283 787 269 786 q 310 793 297 788 q 334 810 324 799 q 344 844 344 822 q 335 875 344 860 q 300 890 326 890 q 272 885 282 890 q 258 872 263 879 q 251 856 253 865 q 250 842 250 847 l 75 842 q 101 943 75 904 q 164 1003 128 982 q 239 1033 200 1025 q 306 1040 278 1040 q 394 1026 356 1040 q 460 988 433 1011 q 502 933 488 964 q 517 869 517 903 q 515 845 517 861 q 505 812 513 829 q 481 776 497 794 q 438 742 465 757 q 522 683 492 724 q 553 594 553 643 q 533 518 553 554 q 478 456 513 482 q 399 414 444 429 q 304 399 354 399 q 185 420 243 399 q 96 485 128 442 q 66 549 72 517 q 57 601 60 581 l 236 601 m 1039 1028 l 607 0 l 418 0 l 849 1028 l 1039 1028 m 799 107 l 799 226 l 1096 617 l 1260 617 l 1260 238 l 1332 238 l 1332 107 l 1260 107 l 1260 0 l 1089 0 l 1089 107 l 799 107 m 1092 238 l 1092 406 l 1089 406 l 975 238 l 1092 238 z "},"¼":{"ha":1250,"x_min":67,"x_max":1182,"o":"m 832 238 l 942 238 l 942 400 l 939 400 l 832 238 m 649 107 l 649 226 l 946 617 l 1110 617 l 1110 238 l 1182 238 l 1182 107 l 1110 107 l 1110 0 l 939 0 l 939 107 l 649 107 m 346 411 l 175 411 l 175 881 l 67 881 l 67 1028 l 346 1028 l 346 411 m 882 1028 l 450 0 l 261 0 l 692 1028 l 882 1028 z "},"¹":{"ha":565,"x_min":96,"x_max":375,"o":"m 375 411 l 204 411 l 204 881 l 96 881 l 96 1028 l 375 1028 l 375 411 z "},"×":{"ha":833,"x_min":78,"x_max":756,"o":"m 597 676 l 756 518 l 574 338 l 753 157 l 596 0 l 417 179 l 235 0 l 78 157 l 258 338 l 78 518 l 235 675 l 415 494 l 597 676 z "},"Þ":{"ha":883,"x_min":93,"x_max":867,"o":"m 344 419 l 451 419 q 498 422 469 419 q 552 435 526 424 q 597 472 578 446 q 615 543 615 497 q 596 613 615 589 q 549 649 576 638 q 492 662 522 660 q 442 664 463 664 l 344 664 l 344 419 m 93 1028 l 344 1028 l 344 893 l 429 894 q 551 889 500 894 q 638 874 601 883 q 700 850 675 864 q 746 819 725 836 q 837 698 807 769 q 867 547 867 626 q 859 469 867 508 q 837 394 851 429 q 803 328 822 358 q 758 278 783 299 q 704 239 732 256 q 642 211 676 222 q 563 194 607 200 q 458 189 518 189 l 344 189 l 344 0 l 93 0 l 93 1028 z "},"¦":{"ha":771,"x_min":258,"x_max":513,"o":"m 513 328 l 513 -139 l 258 -139 l 258 328 l 513 328 m 513 1028 l 513 561 l 258 561 l 258 1028 l 513 1028 z "},"Ð":{"ha":1031,"x_min":0,"x_max":982,"o":"m 506 411 l 356 411 l 356 231 l 468 231 q 590 254 542 231 q 667 317 639 278 q 708 407 696 356 q 719 513 719 458 q 708 608 719 557 q 669 703 697 658 q 642 737 658 719 q 601 767 625 754 q 545 789 578 781 q 469 797 513 797 l 356 797 l 356 642 l 506 642 l 506 411 m 0 642 l 93 642 l 93 1028 l 439 1028 q 538 1025 482 1028 q 655 1004 594 1022 q 776 947 715 986 q 888 836 836 908 q 961 682 940 763 q 982 517 982 601 q 951 317 982 411 q 859 153 921 224 q 703 41 797 82 q 481 0 608 0 l 93 0 l 93 411 l 0 411 l 0 642 z "},"½":{"ha":1278,"x_min":67,"x_max":1211,"o":"m 1211 147 l 1211 0 l 738 0 l 738 135 q 837 200 788 167 q 926 269 886 233 q 990 342 965 304 q 1015 422 1015 381 q 1006 462 1015 443 q 967 481 997 481 q 931 469 944 481 q 912 443 918 458 q 903 412 906 428 q 901 386 901 396 l 731 386 q 738 456 732 418 q 771 533 743 493 q 820 583 792 564 q 877 612 849 601 q 933 626 906 622 q 979 629 960 629 q 1078 613 1035 629 q 1150 572 1121 597 q 1194 513 1179 546 q 1208 447 1208 481 q 1199 386 1208 418 q 1167 318 1190 354 q 1102 240 1143 282 q 999 150 1061 199 l 999 147 l 1211 147 m 346 411 l 175 411 l 175 881 l 67 881 l 67 1028 l 346 1028 l 346 411 m 882 1028 l 450 0 l 261 0 l 692 1028 l 882 1028 z "},"−":{"ha":833,"x_min":67,"x_max":767,"o":"m 67 240 l 67 463 l 767 463 l 767 240 l 67 240 z "},"ð":{"ha":925,"x_min":47,"x_max":878,"o":"m 656 910 q 741 825 701 872 q 811 719 781 778 q 860 580 843 660 q 878 419 878 500 q 848 247 878 328 q 764 106 818 167 q 633 11 710 46 q 463 -24 556 -24 q 301 7 376 -24 q 169 92 225 38 q 80 222 113 147 q 47 383 47 296 q 80 555 47 481 q 165 679 113 629 q 284 755 218 729 q 417 779 350 781 q 507 763 468 778 q 579 714 546 749 l 582 717 q 529 781 564 749 q 447 846 494 814 l 239 783 l 110 867 l 304 926 q 235 955 269 942 q 167 976 201 968 l 389 1050 q 458 1028 422 1042 q 529 996 493 1015 l 708 1050 l 824 961 l 656 910 m 469 583 q 381 564 418 583 q 322 515 344 544 q 288 451 299 485 q 278 388 278 417 q 289 319 278 354 q 323 256 300 285 q 381 210 346 228 q 465 192 417 192 q 549 211 515 192 q 606 260 583 231 q 638 323 628 289 q 647 388 647 357 q 637 454 647 419 q 604 517 626 489 q 549 565 582 546 q 469 583 515 583 z "},"þ":{"ha":965,"x_min":82,"x_max":921,"o":"m 496 189 q 578 206 542 189 q 639 250 614 222 q 677 313 664 278 q 690 385 690 349 q 678 454 690 419 q 641 517 665 489 q 580 563 617 544 q 496 581 543 581 q 411 563 447 581 q 351 517 375 544 q 314 454 326 489 q 301 385 301 419 q 315 313 301 349 q 353 250 328 278 q 414 206 378 222 q 496 189 450 189 m 82 1028 l 313 1028 l 313 703 q 345 733 326 717 q 391 763 364 749 q 455 786 418 776 q 542 796 492 796 q 717 756 644 796 q 834 654 789 715 q 900 519 879 593 q 921 378 921 444 q 893 221 921 294 q 815 92 865 147 q 696 6 765 38 q 544 -26 626 -26 q 451 -15 490 -26 q 385 11 413 -4 q 340 42 357 26 q 313 69 322 58 l 313 -257 l 82 -257 l 82 1028 z "},"²":{"ha":565,"x_min":42,"x_max":522,"o":"m 522 558 l 522 411 l 49 411 l 49 546 q 148 611 99 578 q 237 680 197 644 q 301 753 276 715 q 326 833 326 792 q 317 873 326 854 q 278 892 308 892 q 242 881 256 892 q 223 854 229 869 q 215 823 217 839 q 213 797 213 807 l 42 797 q 49 867 43 829 q 82 944 54 904 q 131 994 103 975 q 188 1023 160 1013 q 244 1037 217 1033 q 290 1040 271 1040 q 389 1024 346 1040 q 461 983 432 1008 q 505 924 490 957 q 519 858 519 892 q 510 797 519 829 q 478 729 501 765 q 413 651 454 693 q 310 561 372 610 l 310 558 l 522 558 z "},"³":{"ha":565,"x_min":31,"x_max":526,"o":"m 210 601 q 215 584 211 593 q 226 567 218 575 q 246 554 233 560 q 279 549 258 549 q 346 608 346 549 q 331 644 346 626 q 278 661 315 661 l 201 661 l 201 786 l 235 786 q 257 787 243 786 q 284 793 271 788 q 308 810 297 799 q 318 844 318 822 q 309 875 318 860 q 274 890 300 890 q 246 885 256 890 q 231 872 236 879 q 225 856 226 865 q 224 842 224 847 l 49 842 q 75 943 49 904 q 138 1003 101 982 q 213 1033 174 1025 q 279 1040 251 1040 q 368 1026 329 1040 q 434 988 407 1011 q 476 933 461 964 q 490 869 490 903 q 488 845 490 861 q 478 812 486 829 q 455 776 471 794 q 411 742 439 757 q 496 683 465 724 q 526 594 526 643 q 506 518 526 554 q 452 456 486 482 q 373 414 418 429 q 278 399 328 399 q 159 420 217 399 q 69 485 101 442 q 40 549 46 517 q 31 601 33 581 l 210 601 z "},"Š":{"ha":796,"x_min":35,"x_max":764,"o":"m 461 1339 l 685 1339 l 469 1108 l 319 1108 l 110 1339 l 333 1339 l 397 1258 l 461 1339 m 496 728 q 490 758 493 740 q 476 791 486 775 q 449 817 467 807 q 401 828 432 828 q 339 806 367 828 q 311 747 311 783 q 318 708 311 724 q 348 677 325 693 q 413 641 371 661 q 524 590 454 621 q 642 525 596 558 q 716 456 689 492 q 753 380 743 419 q 764 296 764 340 q 746 183 764 239 q 686 82 728 126 q 576 9 644 38 q 406 -19 507 -19 q 222 13 294 -19 q 108 94 150 46 q 51 200 67 143 q 35 307 35 257 l 35 340 l 296 340 q 308 268 296 296 q 337 225 319 240 q 372 205 354 210 q 403 200 390 200 q 476 231 450 200 q 503 299 503 263 q 494 342 503 324 q 462 375 485 360 q 400 408 439 390 q 301 450 361 425 q 231 481 274 461 q 149 535 189 501 q 79 621 108 569 q 50 744 50 672 q 82 873 50 817 q 165 968 114 929 q 281 1027 217 1007 q 410 1047 344 1047 q 562 1019 486 1047 q 688 931 638 990 q 723 876 710 903 q 743 823 736 849 q 752 774 750 797 q 756 728 754 750 l 496 728 z "},"Ý":{"ha":899,"x_min":13,"x_max":886,"o":"m 729 1243 l 388 1092 l 322 1228 l 656 1407 l 729 1243 m 319 374 l 13 1028 l 297 1028 l 450 615 l 604 1028 l 886 1028 l 582 374 l 582 0 l 319 0 l 319 374 z "},"Ž":{"ha":693,"x_min":22,"x_max":671,"o":"m 444 1339 l 668 1339 l 453 1108 l 303 1108 l 93 1339 l 317 1339 l 381 1258 l 444 1339 m 22 172 l 376 797 l 22 797 l 22 1028 l 671 1028 l 671 815 l 343 231 l 671 231 l 671 0 l 22 0 l 22 172 z "},"š":{"ha":693,"x_min":33,"x_max":661,"o":"m 410 1110 l 633 1110 l 418 879 l 268 879 l 58 1110 l 282 1110 l 346 1029 l 410 1110 m 411 554 q 409 570 411 560 q 400 590 407 581 q 378 606 393 599 q 339 613 364 613 q 288 594 303 613 q 274 561 274 576 q 310 510 274 529 q 392 478 346 492 q 489 448 440 464 q 576 406 538 432 q 638 339 614 379 q 661 236 661 299 q 636 126 661 175 q 568 44 611 78 q 468 -8 525 10 q 347 -26 411 -26 q 251 -15 303 -26 q 154 25 200 -4 q 75 103 108 54 q 33 229 42 153 l 263 229 q 279 188 267 203 q 306 167 292 174 q 333 160 321 161 q 350 158 346 158 q 405 174 379 158 q 431 218 431 190 q 419 254 431 240 q 384 281 408 268 q 321 307 360 293 q 226 342 282 321 q 156 372 189 354 q 97 415 122 390 q 58 472 72 440 q 43 543 43 504 q 67 647 43 600 q 133 728 92 694 q 228 779 174 761 q 342 797 282 797 q 428 788 379 797 q 520 751 476 778 q 597 678 564 725 q 638 554 631 631 l 411 554 z "},"ý":{"ha":797,"x_min":1,"x_max":796,"o":"m 679 1014 l 338 863 l 272 999 l 606 1178 l 679 1014 m 796 771 l 410 -257 l 165 -257 l 288 39 l 1 771 l 247 771 l 401 324 l 404 324 l 551 771 l 796 771 z "},"ž":{"ha":617,"x_min":21,"x_max":631,"o":"m 407 1110 l 631 1110 l 415 879 l 265 879 l 56 1110 l 279 1110 l 343 1029 l 407 1110 m 594 175 l 594 0 l 21 0 l 21 158 l 346 596 l 21 596 l 21 771 l 594 771 l 594 596 l 293 175 l 594 175 z "},"€":{"ha":858,"x_min":-14,"x_max":847,"o":"m 847 308 q 815 174 843 235 q 738 71 788 114 q 621 4 689 28 q 468 -19 553 -19 q 312 8 381 -19 q 194 84 243 35 q 120 202 146 133 q 94 356 94 271 l 94 367 l -14 367 l 32 478 l 94 478 l 94 560 l -14 560 l 32 671 l 94 671 q 129 826 99 756 q 214 944 160 896 q 342 1020 268 993 q 508 1047 417 1047 q 615 1038 567 1047 q 708 1013 664 1029 q 771 983 740 1000 q 832 943 801 967 l 735 740 q 695 768 715 756 q 650 792 675 781 q 591 811 618 806 q 533 817 564 817 q 452 804 485 817 q 399 771 419 792 q 368 724 378 750 q 357 671 358 697 l 704 671 l 658 560 l 357 560 l 357 478 l 626 478 l 581 367 l 357 367 l 357 356 q 360 314 357 339 q 375 266 363 289 q 411 227 388 243 q 476 211 435 211 q 555 242 529 211 q 585 308 581 272 l 847 308 z "},"Ω":{"ha":1067,"x_min":49,"x_max":1019,"o":"m 458 0 l 49 0 l 49 226 l 71 226 q 85 183 78 200 q 103 158 92 167 q 130 146 114 149 q 171 143 146 143 l 376 143 l 376 163 q 207 242 267 194 q 152 300 176 267 q 110 372 128 333 q 84 454 93 411 q 75 539 75 497 q 129 738 75 642 q 290 885 185 833 q 533 938 394 938 q 776 886 674 938 q 936 738 883 833 q 992 539 992 643 q 956 372 992 456 q 860 242 921 290 q 692 163 799 194 l 692 143 l 897 143 q 938 146 922 143 q 965 158 954 149 q 982 183 975 167 q 996 226 989 200 l 1019 226 l 1019 0 l 608 0 l 631 197 q 756 286 714 229 q 826 540 826 383 q 749 803 826 715 q 538 890 671 890 q 329 813 399 890 q 242 542 242 714 q 269 367 242 442 q 346 249 296 292 q 438 197 376 218 l 458 0 z "},"Δ":{"ha":850,"x_min":18,"x_max":832,"o":"m 832 0 l 18 0 l 443 940 l 832 0 m 671 56 l 401 711 l 103 56 l 671 56 z "}}}
